<svg width="55" height="55" viewBox="0 0 55 55" fill="none" xmlns="http://www.w3.org/2000/svg">
<rect width="54.3049" height="55" rx="15" fill="#2E86FF"/>
<path d="M41.6234 17.5245C41.6234 17.5245 37.629 14.3806 32.9114 14.0196L32.4863 14.8748C36.7517 15.9245 38.7084 17.429 40.7522 19.2769C37.2282 17.4675 33.7486 15.772 27.6842 15.772C21.6198 15.772 18.1402 17.4675 14.6162 19.2769C16.66 17.429 18.9879 15.7589 22.8821 14.8748L22.457 14.0196C17.5077 14.4901 13.745 17.5245 13.745 17.5245C13.745 17.5245 9.28356 24.0305 8.51778 36.8015C13.0149 42.0176 19.8434 42.0588 19.8434 42.0588L21.2713 40.1443C18.8476 39.2969 16.1103 37.7837 13.745 35.049C16.5659 37.1958 20.8235 39.4301 27.6842 39.4301C34.5449 39.4301 38.8025 37.1958 41.6234 35.049C39.2581 37.7837 36.5208 39.2969 34.0971 40.1443L35.525 42.0588C35.525 42.0588 42.3535 42.0176 46.8506 36.8015C46.0849 24.0305 41.6234 17.5245 41.6234 17.5245ZM22.0214 33.2966C20.3374 33.2966 18.9722 31.7272 18.9722 29.7917C18.9722 27.8561 20.3374 26.2868 22.0214 26.2868C23.7054 26.2868 25.0706 27.8561 25.0706 29.7917C25.0706 31.7272 23.7054 33.2966 22.0214 33.2966ZM33.347 33.2966C31.663 33.2966 30.2978 31.7272 30.2978 29.7917C30.2978 27.8561 31.663 26.2868 33.347 26.2868C35.0311 26.2868 36.3962 27.8561 36.3962 29.7917C36.3962 31.7272 35.0311 33.2966 33.347 33.2966Z" fill="white"/>
</svg>
