<svg width="55" height="55" viewBox="0 0 55 55" fill="none" xmlns="http://www.w3.org/2000/svg">
<rect width="55" height="55" rx="15" fill="#0288D1"/>
<path d="M9.70598 24.2199C9.70598 22.1105 11.416 20.4004 13.5254 20.4004V20.4004C15.6348 20.4004 17.3449 22.1105 17.3449 24.2199V42.5532C17.3449 44.6626 15.6348 46.3727 13.5254 46.3727V46.3727C11.416 46.3727 9.70598 44.6626 9.70598 42.5532V24.2199ZM13.5025 17.3449H13.4597C11.1803 17.3449 9.70598 15.646 9.70598 13.5239C9.70598 11.356 11.2261 9.70599 13.5468 9.70599C15.8706 9.70599 17.3021 11.356 17.3449 13.5239C17.3449 15.6445 15.8706 17.3449 13.5025 17.3449ZM46.3723 42.553C46.3725 44.6625 44.6625 46.3727 42.553 46.3727V46.3727C40.4437 46.3727 38.7338 44.6627 38.7338 42.5534V32.4714C38.7338 29.1134 36.8622 26.8217 33.8571 26.8217C31.5639 26.8217 30.3233 28.3678 29.7214 29.862C29.5014 30.3967 29.5671 31.8756 29.5671 32.6227V42.5532C29.5671 44.6626 27.8571 46.3727 25.7476 46.3727V46.3727C23.6382 46.3727 21.9282 44.6626 21.9282 42.5532V24.2199C21.9282 22.1105 23.6382 20.4004 25.7476 20.4004H28.6568C29.1595 20.4004 29.5671 20.808 29.5671 21.3107V21.3107C29.5671 22.2181 30.851 22.6265 31.5551 22.0541C32.7031 21.1207 34.3321 20.4004 36.8057 20.4004C42.2721 20.4004 46.3711 23.8379 46.3711 31.5135L46.3723 42.553Z" fill="white"/>
</svg>
