<svg width="55" height="56" viewBox="0 0 55 56" fill="none" xmlns="http://www.w3.org/2000/svg">
<rect width="55" height="55.704" rx="15" fill="url(#paint0_linear_1_132)"/>
<g clip-path="url(#clip0_1_132)">
<path d="M27.5 10.232C18.3879 10.232 11 17.6199 11 26.732C11 35.8441 18.3865 43.232 27.5 43.232C36.6121 43.232 44 35.8441 44 26.732C44 17.6185 36.6121 10.232 27.5 10.232ZM27.4835 11.959C35.6538 11.9494 42.2716 18.5659 42.2716 26.7279C42.2716 34.8899 35.6538 41.5077 27.4931 41.5064C19.3311 41.5064 12.7133 34.8899 12.7133 26.7279C12.7133 18.5782 19.3119 11.9672 27.4835 11.959ZM27.0435 18.2386C25.4147 18.2376 23.8512 18.8795 22.693 20.0247C22.1194 20.5814 21.6635 21.2476 21.3524 21.9838C21.0414 22.7201 20.8814 23.5113 20.8821 24.3106V25.6567L20.1176 27.0359V29.0214C20.1191 29.909 20.2981 30.7875 20.644 31.605C20.9899 32.4225 21.4958 33.1625 22.132 33.7816C23.4275 35.0528 25.1707 35.7639 26.9858 35.7616H28.2178C30.0273 35.7616 31.7653 35.0507 33.0578 33.7816C33.6949 33.1631 34.2017 32.4232 34.5481 31.6057C34.8946 30.7881 35.0737 29.9093 35.0749 29.0214V27.0345L34.3186 25.6554V24.3079C34.3177 23.5087 34.1566 22.7178 33.8448 21.9819C33.5331 21.246 33.0771 20.58 32.5036 20.0234C31.3447 18.8774 29.7802 18.2355 28.1504 18.2372L27.0435 18.2386ZM27.0435 20.9474H28.1504C29.0521 20.9502 29.9165 21.3078 30.5566 21.9429C31.196 22.5644 31.5576 23.4182 31.5604 24.3106L31.5645 25.6994H23.6307V24.3106C23.6335 23.4182 23.9951 22.5644 24.6345 21.9429C25.275 21.3074 26.1398 20.9493 27.0421 20.946L27.0435 20.9474ZM27.6815 28.0919H27.7227C29.832 28.0602 30.404 30.9849 28.4364 31.7494H28.3181V33.3389C28.3188 33.4555 28.2899 33.5704 28.2341 33.6728C28.1783 33.7753 28.0975 33.8619 27.9991 33.9246H27.2965C27.1962 33.8605 27.1134 33.7723 27.0558 33.6681C26.9981 33.5639 26.9675 33.447 26.9665 33.3279V31.7507C25.0003 30.9862 25.5709 28.0602 27.6815 28.0919Z" fill="white"/>
</g>
<defs>
<linearGradient id="paint0_linear_1_132" x1="27.5" y1="0" x2="27.5" y2="55.704" gradientUnits="userSpaceOnUse">
<stop stop-color="#01ABF0"/>
<stop offset="1" stop-color="#0182F0"/>
</linearGradient>
<clipPath id="clip0_1_132">
<rect width="33" height="33" fill="white" transform="translate(11 10.232)"/>
</clipPath>
</defs>
</svg>
