<svg width="55" height="56" viewBox="0 0 55 56" fill="none" xmlns="http://www.w3.org/2000/svg">
<rect width="55" height="55.704" rx="15" fill="#CB1F27"/>
<path d="M28.9161 9.83011C21.4234 9.83011 14.0196 14.7694 14.0196 22.7636C14.0196 27.8473 16.9113 30.7358 18.6638 30.7358C19.387 30.7358 19.8029 28.7427 19.8029 28.18C19.8029 27.5088 18.0726 26.0784 18.0726 23.2835C18.0726 17.4776 22.5415 13.361 28.3249 13.361C33.2974 13.361 36.9777 16.1559 36.9777 21.2904C36.9777 25.1252 35.4226 32.3175 30.3835 32.3175C28.5656 32.3175 27.0093 31.0177 27.0093 29.1552C27.0093 26.425 28.9371 23.7826 28.9371 20.9658C28.9371 16.1859 22.08 17.0525 22.08 22.8294C22.08 24.0426 22.2331 25.3851 22.7811 26.4909C21.7728 30.7808 19.7141 37.1713 19.7141 41.5907C19.7141 42.9552 19.9116 44.2989 20.0424 45.6634C20.2901 45.9384 20.1663 45.9095 20.546 45.772C24.2263 40.7888 24.0955 39.8148 25.7604 33.2938C26.6588 34.9841 28.9803 35.8934 30.8205 35.8934C38.5748 35.8934 42.0588 28.4192 42.0588 21.6821C42.0588 14.5118 35.793 9.83242 28.9149 9.83242L28.9161 9.83011Z" fill="white"/>
</svg>
