<svg width="55" height="55" viewBox="0 0 55 55" fill="none" xmlns="http://www.w3.org/2000/svg">
<rect width="55" height="55" rx="15" fill="url(#paint0_linear_2_212)"/>
<path d="M11.8627 15.9528C11.8627 14.868 12.2888 13.8277 13.0472 13.0606C13.8056 12.2936 14.8342 11.8627 15.9068 11.8627H40.1715C41.2441 11.8627 42.2727 12.2936 43.0311 13.0606C43.7895 13.8277 44.2156 14.868 44.2156 15.9528V32.313C44.2156 33.3978 43.7895 34.4381 43.0311 35.2052C42.2727 35.9722 41.2441 36.4031 40.1715 36.4031H20.788C20.2518 36.4032 19.7376 36.6188 19.3585 37.0023L13.5895 42.8368C13.4482 42.98 13.2681 43.0777 13.0719 43.1173C12.8758 43.157 12.6724 43.1369 12.4875 43.0596C12.3026 42.9824 12.1446 42.8513 12.0333 42.6832C11.9221 42.515 11.8627 42.3172 11.8627 42.1149V15.9528ZM18.9399 17.9978C18.6717 17.9978 18.4146 18.1055 18.225 18.2973C18.0354 18.489 17.9289 18.7491 17.9289 19.0203C17.9289 19.2915 18.0354 19.5516 18.225 19.7433C18.4146 19.9351 18.6717 20.0428 18.9399 20.0428H37.1384C37.4066 20.0428 37.6637 19.9351 37.8533 19.7433C38.0429 19.5516 38.1494 19.2915 38.1494 19.0203C38.1494 18.7491 38.0429 18.489 37.8533 18.2973C37.6637 18.1055 37.4066 17.9978 37.1384 17.9978H18.9399ZM18.9399 23.1104C18.6717 23.1104 18.4146 23.2181 18.225 23.4099C18.0354 23.6016 17.9289 23.8617 17.9289 24.1329C17.9289 24.4041 18.0354 24.6642 18.225 24.8559C18.4146 25.0477 18.6717 25.1554 18.9399 25.1554H37.1384C37.4066 25.1554 37.6637 25.0477 37.8533 24.8559C38.0429 24.6642 38.1494 24.4041 38.1494 24.1329C38.1494 23.8617 38.0429 23.6016 37.8533 23.4099C37.6637 23.2181 37.4066 23.1104 37.1384 23.1104H18.9399ZM18.9399 28.223C18.6717 28.223 18.4146 28.3307 18.225 28.5225C18.0354 28.7142 17.9289 28.9743 17.9289 29.2455C17.9289 29.5167 18.0354 29.7768 18.225 29.9685C18.4146 30.1603 18.6717 30.268 18.9399 30.268H29.0502C29.3183 30.268 29.5755 30.1603 29.7651 29.9685C29.9547 29.7768 30.0612 29.5167 30.0612 29.2455C30.0612 28.9743 29.9547 28.7142 29.7651 28.5225C29.5755 28.3307 29.3183 28.223 29.0502 28.223H18.9399Z" fill="white"/>
<defs>
<linearGradient id="paint0_linear_2_212" x1="27.5" y1="0" x2="27.5" y2="55" gradientUnits="userSpaceOnUse">
<stop stop-color="#2196F3"/>
<stop offset="1" stop-color="#0C539D"/>
</linearGradient>
</defs>
</svg>
