<svg width="55" height="55" viewBox="0 0 55 55" fill="none" xmlns="http://www.w3.org/2000/svg">
<rect width="55" height="55" rx="10" fill="#FF3D00"/>
<path d="M43.4662 35.8569C43.1327 37.6076 41.7154 38.9415 39.9647 39.1917C37.2135 39.6085 32.6281 40.1087 27.4592 40.1087C22.3736 40.1087 17.7882 39.6085 14.9537 39.1917C13.2029 38.9415 11.7856 37.6076 11.4521 35.8569C11.1186 33.9393 10.7852 31.1048 10.7852 27.6032C10.7852 24.1017 11.1186 21.2671 11.4521 19.3496C11.7856 17.5988 13.2029 16.2649 14.9537 16.0148C17.7049 15.5979 22.2902 15.0977 27.4592 15.0977C32.6281 15.0977 37.1301 15.5979 39.9647 16.0148C41.7154 16.2649 43.1327 17.5988 43.4662 19.3496C43.7997 21.2671 44.2165 24.1017 44.2165 27.6032C44.1332 31.1048 43.7997 33.9393 43.4662 35.8569Z" fill="white"/>
<path d="M23.732 33.3901V21.7183L33.7364 27.5542L23.732 33.3901Z" fill="#FF3D00"/>
</svg>
