<svg width="55" height="55" viewBox="0 0 55 55" fill="none" xmlns="http://www.w3.org/2000/svg">
<rect width="55" height="55" rx="15" fill="#229EE3"/>
<path d="M24.75 33V31.625H15.1387L15.125 37.125C15.125 38.6513 16.3487 39.875 17.875 39.875H37.125C38.6513 39.875 39.875 38.6513 39.875 37.125V31.625H30.25V33H24.75ZM38.5 20.625H32.9862V17.875L30.2362 15.125H24.7362L21.9862 17.875V20.625H16.5C14.9875 20.625 13.75 21.8625 13.75 23.375V27.5C13.75 29.0262 14.9737 30.25 16.5 30.25H24.75V27.5H30.25V30.25H38.5C40.0125 30.25 41.25 29.0125 41.25 27.5V23.375C41.25 21.8625 40.0125 20.625 38.5 20.625ZM30.25 20.625H24.75V17.875H30.25V20.625Z" fill="white"/>
</svg>
