<svg width="55" height="55" viewBox="0 0 55 55" fill="none" xmlns="http://www.w3.org/2000/svg">
<rect width="55" height="55" rx="15" fill="url(#paint0_linear_2_194)"/>
<path d="M43.5696 17.2651C43.4226 17.2525 43.2745 17.2525 43.1275 17.2651H12.9314C12.7379 17.2676 12.5456 17.2918 12.3598 17.337L27.9432 30.2703L43.5696 17.2651Z" fill="white"/>
<path fill-rule="evenodd" clip-rule="evenodd" d="M45.1663 18.5148L33.9452 27.828L45.2952 37.0799C45.2955 37.0661 45.2957 37.0523 45.2957 37.0385V19.0631C45.2871 18.8758 45.2435 18.6908 45.1663 18.5148ZM29.4643 31.547L32.159 29.3105L39.3163 35.1447L41.6075 37.0385H41.6395L43.7533 38.7615C43.5556 38.8105 43.3488 38.836 43.1389 38.836H12.9428C12.7285 38.836 12.5174 38.8094 12.316 38.7585L23.8197 29.3832L26.4232 31.547C26.8273 31.8818 27.3739 32.0697 27.9438 32.0697C28.5136 32.0697 29.0602 31.8818 29.4643 31.547ZM22.0405 27.9046L10.8614 18.6137C10.8136 18.7602 10.7882 18.9112 10.7859 19.0631V37.0385C10.7859 37.0511 10.7861 37.0638 10.7864 37.0764L22.0405 27.9046Z" fill="white"/>
<defs>
<linearGradient id="paint0_linear_2_194" x1="27.5" y1="0" x2="27.5" y2="55" gradientUnits="userSpaceOnUse">
<stop stop-color="#0B6AB1"/>
<stop offset="1" stop-color="#31BBEF"/>
</linearGradient>
</defs>
</svg>
