<svg width="55" height="55" viewBox="0 0 55 55" fill="none" xmlns="http://www.w3.org/2000/svg">
<rect width="55" height="55" rx="15" fill="#42D755"/>
<path d="M30.187 16.1611H16.2819C13.8844 16.1611 11.8466 18.199 11.8466 20.5964V31.9842C11.8466 34.3816 13.8844 36.4195 16.2819 36.4195H30.187C32.5844 36.4195 34.6222 34.3816 34.6222 31.9842V20.5964C34.6222 18.0791 32.5844 16.1611 30.187 16.1611Z" fill="white"/>
<path d="M41.095 17.1199L36.42 21.1955C36.1802 21.4353 35.9405 21.7949 35.9405 22.1545V30.1859C35.9405 30.2002 35.9407 30.2146 35.9411 30.2289C35.9605 30.9459 36.6879 31.3854 37.2218 31.8644L41.095 35.3404C42.1738 36.2994 43.9719 35.5802 43.9719 34.0218V18.4385C43.9719 16.8802 42.2937 16.041 41.095 17.1199Z" fill="white"/>
</svg>
