<svg width="55" height="56" viewBox="0 0 55 56" fill="none" xmlns="http://www.w3.org/2000/svg">
<path d="M42.7964 55.6746L12.257 55.704C5.53833 55.7102 0.0366525 50.1489 0.0290176 43.3442L5.09064e-06 12.4139C-0.0061028 5.60922 5.48489 0.0371216 12.2036 0.0293891L42.743 5.1558e-06C49.4617 -0.00618091 54.9633 5.55509 54.971 12.3598L55 43.2901C55.0076 50.0963 49.5151 55.6684 42.7964 55.6746Z" fill="url(#paint0_radial_1_12)"/>
<path d="M42.7964 55.6746L12.257 55.704C5.53833 55.7102 0.0366525 50.1489 0.0290176 43.3442L5.09064e-06 12.4139C-0.0061028 5.60922 5.48489 0.0371216 12.2036 0.0293891L42.743 5.1558e-06C49.4617 -0.00618091 54.9633 5.55509 54.971 12.3598L55 43.2901C55.0076 50.0963 49.5151 55.6684 42.7964 55.6746Z" fill="url(#paint1_radial_1_12)"/>
<path d="M27.4995 38.6788C21.6069 38.6788 16.8107 33.8227 16.8107 27.8532C16.8107 21.8836 21.6069 17.0276 27.4995 17.0276C33.3921 17.0276 38.1883 21.8836 38.1883 27.8532C38.1883 33.8227 33.3921 38.6788 27.4995 38.6788ZM27.4995 20.1206C23.2896 20.1206 19.8646 23.5894 19.8646 27.8532C19.8646 32.1169 23.2896 35.5858 27.4995 35.5858C31.7094 35.5858 35.1344 32.1169 35.1344 27.8532C35.1344 23.5894 31.7094 20.1206 27.4995 20.1206Z" fill="white"/>
<path d="M38.9511 18.5739C40.216 18.5739 41.2415 17.5353 41.2415 16.2541C41.2415 14.973 40.216 13.9344 38.9511 13.9344C37.6861 13.9344 36.6606 14.973 36.6606 16.2541C36.6606 17.5353 37.6861 18.5739 38.9511 18.5739Z" fill="white"/>
<path d="M36.6626 47.9574H18.3389C12.4463 47.9574 7.6501 43.1014 7.6501 37.1318V18.5736C7.6501 12.6041 12.4463 7.74802 18.3389 7.74802H36.6626C42.5551 7.74802 47.3514 12.6041 47.3514 18.5736V37.1318C47.3514 43.1014 42.5551 47.9574 36.6626 47.9574ZM18.3389 10.841C14.129 10.841 10.704 14.3099 10.704 18.5736V37.1318C10.704 41.3956 14.129 44.8644 18.3389 44.8644H36.6626C40.8724 44.8644 44.2974 41.3956 44.2974 37.1318V18.5736C44.2974 14.3099 40.8724 10.841 36.6626 10.841H18.3389Z" fill="white"/>
<defs>
<radialGradient id="paint0_radial_1_12" cx="0" cy="0" r="1" gradientUnits="userSpaceOnUse" gradientTransform="translate(20.4462 55.7442) scale(68.5595 69.4371)">
<stop stop-color="#FFDD55"/>
<stop offset="0.328" stop-color="#FF543F"/>
<stop offset="0.348" stop-color="#FC5245"/>
<stop offset="0.504" stop-color="#E64771"/>
<stop offset="0.643" stop-color="#D53E91"/>
<stop offset="0.761" stop-color="#CC39A4"/>
<stop offset="0.841" stop-color="#C837AB"/>
</radialGradient>
<radialGradient id="paint1_radial_1_12" cx="0" cy="0" r="1" gradientUnits="userSpaceOnUse" gradientTransform="translate(8.85033 -0.69546) scale(45.5236 30.7206)">
<stop stop-color="#4168C9"/>
<stop offset="0.999" stop-color="#4168C9" stop-opacity="0"/>
</radialGradient>
</defs>
</svg>
