<svg width="55" height="55" viewBox="0 0 55 55" fill="none" xmlns="http://www.w3.org/2000/svg">
<rect width="55" height="55" rx="15" fill="white"/>
<path d="M20.1148 30.384L19.9708 32H14.4028L14.5148 28.928L14.4028 21.696H16.6108L16.4828 28.736L16.5308 30.208H19.9868L20.1148 30.384ZM24.0446 24.416C24.866 24.416 25.506 24.6027 25.9646 24.976C26.434 25.3387 26.6686 25.8507 26.6686 26.512C26.6686 26.704 26.6366 27.312 26.5726 28.336C26.562 28.6347 26.546 28.944 26.5246 29.264C26.5033 29.5733 26.4926 29.84 26.4926 30.064C26.4926 30.2453 26.5193 30.3733 26.5726 30.448C26.626 30.512 26.722 30.544 26.8606 30.544C26.9673 30.544 27.106 30.5227 27.2766 30.48L27.4366 30.608L27.2446 31.728C26.9033 31.952 26.514 32.0853 26.0766 32.128C25.7566 32.096 25.49 31.984 25.2766 31.792C25.0633 31.5893 24.9193 31.312 24.8446 30.96H24.7326C24.1993 31.5253 23.65 31.92 23.0846 32.144C22.3166 32.1333 21.714 31.9307 21.2766 31.536C20.8393 31.1413 20.6206 30.6027 20.6206 29.92C20.6206 29.3867 20.754 28.9707 21.0206 28.672C21.298 28.3627 21.714 28.1547 22.2686 28.048L24.7166 27.584V26.928C24.7166 26.2347 24.3753 25.888 23.6926 25.888C23.362 25.888 23.01 25.9627 22.6366 26.112C22.274 26.2613 21.8633 26.496 21.4046 26.816L21.2446 26.72L21.0046 25.312C21.4633 25.024 21.954 24.8053 22.4766 24.656C22.9993 24.496 23.522 24.416 24.0446 24.416ZM23.0046 29.024C22.834 29.0667 22.706 29.1413 22.6206 29.248C22.546 29.344 22.5086 29.4933 22.5086 29.696C22.5086 29.9733 22.5833 30.192 22.7326 30.352C22.882 30.5013 23.09 30.576 23.3566 30.576C23.7726 30.576 24.21 30.3307 24.6686 29.84L24.7006 28.656L23.0046 29.024ZM30.0518 24.56H33.2838L34.0998 24.544L34.1158 25.808L30.5158 30.64H32.7718L34.1318 30.512L34.2438 30.656L34.0998 32.032L32.2438 32H29.2998L28.2758 32.048V30.8L31.9078 25.936H29.7638L28.4358 26.048L28.3078 25.904L28.4678 24.528L30.0518 24.56ZM36.881 25.696L38.209 29.856H38.337L39.665 25.872L39.937 24.56H41.761L39.329 31.504C39.073 32.2293 38.785 32.8107 38.465 33.248C38.145 33.696 37.745 34.0587 37.265 34.336C36.785 34.624 36.1663 34.8693 35.409 35.072L35.249 35.056C34.8863 34.704 34.5877 34.288 34.353 33.808L34.417 33.6C35.089 33.4827 35.6437 33.3067 36.081 33.072C36.5183 32.848 36.9343 32.4907 37.329 32L34.609 24.608L36.625 24.512L36.881 25.696Z" fill="black"/>
</svg>
