<svg width="55" height="55" viewBox="0 0 55 55" fill="none" xmlns="http://www.w3.org/2000/svg">
<rect width="55" height="55" rx="15" fill="#FD6578"/>
<path d="M31.5524 33.338C29.2886 35.9643 25.289 35.9643 23.0253 33.338C21.0762 31.0752 18.7617 27.7053 18.7617 24.4941C18.76 21.1403 20.8378 18.116 24.0255 16.8324C27.2131 15.5489 30.8824 16.2591 33.3211 18.6317C34.9248 20.1836 35.8231 22.2946 35.8159 24.4941C35.8159 27.7053 33.5014 31.0752 31.5524 33.338ZM27.2888 20.9419C25.9832 20.9419 24.7768 21.6189 24.1239 22.718C23.4711 23.8171 23.4711 25.1712 24.1239 26.2702C24.7768 27.3693 25.9832 28.0464 27.2888 28.0464C29.3071 28.0464 30.9433 26.456 30.9433 24.4941C30.9433 22.5323 29.3071 20.9419 27.2888 20.9419Z" fill="white"/>
</svg>
