<svg width="344" height="344" viewBox="0 0 344 344" fill="none" xmlns="http://www.w3.org/2000/svg">
<g clip-path="url(#clip0_5108_6402)">
<rect width="344" height="344" rx="70" fill="black"/>
<path d="M69.0002 0.00015038C59.9336 -0.0187975 50.9526 1.75301 42.5726 5.21387C34.1926 8.67474 26.5785 13.7565 20.1675 20.1675C13.7565 26.5785 8.67474 34.1926 5.21387 42.5726C1.75301 50.9526 -0.0187975 59.9336 0.00015038 69.0002V276C-0.0187975 285.067 1.75301 294.048 5.21387 302.428C8.67474 310.808 13.7565 318.422 20.1675 324.833C26.5785 331.244 34.1926 336.326 42.5726 339.786C50.9526 343.247 59.9336 345.019 69.0002 345H276C285.067 345.019 294.048 343.247 302.428 339.786C310.808 336.326 318.422 331.244 324.833 324.833C331.244 318.422 336.326 310.808 339.786 302.428C343.247 294.048 345.019 285.067 345 276V69.0002C345.019 59.9336 343.247 50.9526 339.786 42.5726C336.326 34.1926 331.244 26.5785 324.833 20.1675C318.422 13.7565 310.808 8.67474 302.428 5.21387C294.048 1.75301 285.067 -0.0187975 276 0.00015038H69.0002ZM87.9752 110.4H205.879C235.491 110.4 258.578 116.725 258.578 143.951C258.578 160.296 248.932 168.418 238.065 171.235C251.06 175.088 260.461 185.61 260.461 202.285V232.918H210.853V203.838C210.853 194.925 205.534 191.331 196.478 191.331H137.598V232.918H87.9752V110.4ZM137.598 146.338V158.326H197.326C203.823 158.326 207.762 157.464 207.762 152.346C207.762 147.2 203.823 146.338 197.326 146.338H137.598Z" fill="#FFE130"/>
</g>
<defs>
<clipPath id="clip0_5108_6402">
<rect width="344" height="344" rx="70" fill="white"/>
</clipPath>
</defs>
</svg>
