<svg width="344" height="344" viewBox="0 0 344 344" fill="none" xmlns="http://www.w3.org/2000/svg">
<rect width="344" height="344" rx="70" fill="#F81C86"/>
<path d="M115.5 231L85.9687 260.531C84.4062 262.094 82.6875 262.484 80.8125 261.703C78.9375 260.922 78 259.438 78 257.25V99.75C78 94.5938 79.8375 90.1781 83.5125 86.5031C87.1875 82.8281 91.6 80.9938 96.75 81H246.75C251.906 81 256.322 82.8375 259.997 86.5125C263.672 90.1875 265.506 94.6 265.5 99.75V212.25C265.5 217.406 263.663 221.822 259.988 225.497C256.312 229.172 251.9 231.006 246.75 231H115.5ZM171.75 179.203L189.562 189.984C191.281 191.078 193 191.038 194.719 189.863C196.438 188.688 197.062 187.088 196.594 185.063L191.906 164.672L207.844 150.844C209.406 149.438 209.875 147.759 209.25 145.809C208.625 143.859 207.219 142.803 205.031 142.641L184.172 141L175.969 121.781C175.188 119.906 173.781 118.969 171.75 118.969C169.719 118.969 168.312 119.906 167.531 121.781L159.328 141L138.469 142.641C136.281 142.797 134.875 143.853 134.25 145.809C133.625 147.766 134.094 149.444 135.656 150.844L151.594 164.672L146.906 185.063C146.438 187.094 147.062 188.697 148.781 189.872C150.5 191.047 152.219 191.084 153.938 189.984L171.75 179.203Z" fill="white"/>
</svg>
