<svg width="55" height="55" viewBox="0 0 55 55" fill="none" xmlns="http://www.w3.org/2000/svg">
<rect width="55" height="55" rx="15" fill="#FFEE41"/>
<path d="M27.1687 47.7209C23.3795 47.7209 21.9277 46.3837 20.9663 45.4991C19.4046 44.0657 18.1166 43.5329 16.8253 43.7414L13.7946 44.2571C13.6261 44.2891 13.3672 44.2995 13.1254 44.2467C12.9088 44.2181 12.7129 44.1631 12.5284 44.0806C12.4574 44.0531 12.3966 44.0279 12.3348 43.9958C12.0884 43.8514 11.9165 43.7151 11.7664 43.5547C11.7332 43.5237 11.7 43.4894 11.669 43.4538C11.5831 43.3633 11.5178 43.2705 11.4697 43.18C11.4341 43.125 11.4021 43.0677 11.3746 43.0093C11.3196 42.8878 11.2577 42.7491 11.2119 42.5796C11.1649 42.4535 11.1397 42.3195 11.1385 42.1865C11.119 41.9161 11.1408 41.6744 11.2027 41.4475C11.205 41.4372 11.2084 41.4257 11.2107 41.4165C7.87977 40.8196 6.14498 39.1111 6.06248 39.0298C5.44716 38.4133 5.23518 37.5127 5.51248 36.6797C5.81498 35.8237 6.56435 35.2245 7.4306 35.1339C7.42602 35.1339 7.51998 35.1248 7.66435 35.1213C9.8907 35.0572 13.7625 34.2975 14.6746 29.9227C14.7399 29.611 14.6711 29.2581 14.4935 29.0026C14.3778 28.8353 14.238 28.739 14.0764 28.7138C12.2248 28.4251 10.7902 27.411 10.1405 25.9317C9.67987 24.8833 9.69248 23.7409 10.1726 23.0213C11.0331 21.7334 12.1835 21.3244 14.0077 21.6715C14.0833 21.6853 14.1578 21.7071 14.2288 21.7369L14.6035 21.8892L14.4534 20.1224C14.1647 16.6138 15.3655 13.1225 17.7477 10.5363C20.1276 7.95363 23.5078 6.47092 27.0198 6.47092H27.3177C30.8297 6.47092 34.211 7.95362 36.5909 10.5375C38.972 13.1236 40.1728 16.6173 39.884 20.1201L39.7328 21.8915L40.1075 21.738C40.1797 21.7094 40.253 21.6864 40.3286 21.6727C42.1574 21.3278 43.3032 21.7323 44.1637 23.0225C44.6473 23.7478 44.6587 24.8994 44.1912 25.9558C43.5461 27.4202 42.1367 28.4182 40.3275 28.6944C40.104 28.7287 39.9516 28.888 39.8646 29.014C39.6778 29.2868 39.6045 29.6591 39.6755 29.9846C40.6094 34.3078 44.4605 35.0595 46.6708 35.1225C46.8163 35.1259 46.9114 35.1351 46.9492 35.1408C47.772 35.2256 48.5225 35.826 48.817 36.6613C48.8193 36.6671 48.8215 36.6739 48.8227 36.6797C49.1011 37.5138 48.8903 38.4156 48.2715 39.0332C48.1948 39.1111 46.468 40.8196 43.1336 41.4165C43.1439 41.4566 43.1542 41.5048 43.1611 41.5586C43.2024 41.7523 43.215 41.9597 43.1989 42.1865C43.1978 42.3229 43.1726 42.4581 43.1245 42.5853C43.0786 42.7526 43.019 42.8844 42.9778 42.9772C42.9526 43.0333 42.9182 43.0952 42.8815 43.1536L42.83 43.243L42.8288 43.2419C42.7853 43.3152 42.7349 43.3839 42.6787 43.4447C42.6444 43.4848 42.6077 43.5226 42.571 43.5581C42.4404 43.7013 42.2662 43.8434 42.0691 43.9626C42.0119 43.9958 41.8801 44.0565 41.8182 44.0806C41.6223 44.1677 41.4286 44.2204 41.2086 44.249C40.9646 44.3052 40.7228 44.2949 40.5154 44.2536L37.5076 43.7437C36.2323 43.5272 34.934 44.0657 33.4467 45.4293C32.4098 46.3837 30.9591 47.7209 27.1687 47.7209ZM17.3776 41.4039C19.07 41.4039 20.7326 42.1739 22.4387 43.7391C23.3416 44.571 24.2744 45.4293 27.1687 45.4293C30.0631 45.4293 30.9958 44.5699 31.8185 43.8125C33.9177 41.8875 35.8736 41.145 37.8869 41.4807L40.8523 41.9837C40.8683 41.9814 40.8832 41.9791 40.8981 41.9769C40.8947 41.9574 40.8924 41.939 40.8901 41.9196L40.8855 41.9207C40.8614 41.8726 40.6495 41.3684 40.5154 40.658C40.4535 40.336 40.5349 40.0037 40.7342 39.7436C40.9336 39.4835 41.2361 39.3231 41.5638 39.3002C44.857 39.0779 46.5895 37.4691 46.6513 37.4107C46.649 37.4084 46.6479 37.4073 46.6479 37.4073C41.7025 37.2732 38.3601 34.7421 37.4354 30.4681C37.2326 29.532 37.4354 28.5007 37.9774 27.7147C38.4643 27.0077 39.1771 26.5505 39.9837 26.429C41.1536 26.2503 41.7128 25.6946 41.9763 25.2591C42.2697 24.7756 42.2628 24.3413 42.2273 24.2382C42.0233 23.9414 41.8789 23.7226 40.8626 23.9048L38.8665 24.7183C38.4964 24.8684 38.0771 24.8157 37.7539 24.5808C37.4331 24.3448 37.2566 23.9575 37.2922 23.5599L37.6015 19.9276C37.841 17.0206 36.8831 14.2351 34.9054 12.0878C32.9277 9.94394 30.2338 8.76258 27.3177 8.76258H27.0198C24.1036 8.76258 21.4098 9.94394 19.4332 12.0889C17.4555 14.2362 16.4976 17.0229 16.7371 19.9322L17.0464 23.561C17.0797 23.9586 16.9043 24.3459 16.5835 24.582C16.2604 24.8169 15.8399 24.8696 15.4721 24.7195L13.4749 23.9059C12.4551 23.726 12.3119 23.9449 12.0804 24.2944C12.0758 24.3402 12.0712 24.7664 12.3588 25.2431C12.6292 25.6888 13.2067 26.2606 14.4282 26.4508C15.212 26.5711 15.904 27.0157 16.3784 27.6998C16.9089 28.4663 17.1106 29.4724 16.9181 30.3925C16.0163 34.7134 12.6682 37.2732 7.72966 37.4141C7.69987 37.4268 9.43581 39.0768 12.7736 39.3025C13.1013 39.3254 13.4027 39.4858 13.6032 39.7459C13.8037 40.0049 13.8839 40.3383 13.8221 40.6591C13.688 41.3707 13.4737 41.8772 13.4497 41.9322C13.4462 41.9425 13.4405 41.9574 13.4336 41.9757C13.4474 41.9872 13.4611 41.9803 13.4749 41.9826L16.446 41.4807C16.7588 41.4303 17.0694 41.4039 17.3776 41.4039ZM41.141 42.4661L41.4068 43.0081L41.141 42.4661ZM40.7274 42.4524C40.7182 42.5097 40.7125 42.5704 40.7125 42.6334C40.7125 42.5738 40.7171 42.512 40.7274 42.4524ZM41.6246 41.7511H41.6406L41.9889 41.609L41.5925 41.7213L41.6246 41.7511Z" fill="url(#paint0_linear_2_182)"/>
<path d="M47.6653 36.9743C47.5163 36.5503 47.1497 36.2524 46.7142 36.2066C46.4209 36.1642 39.8415 36.438 38.4837 30.1589C38.2328 28.997 38.9088 27.6736 40.0844 27.4937C43.1392 27.0285 43.6663 24.3816 43.1392 23.591C42.6122 22.8003 41.9934 22.4451 40.4694 22.7316L38.3611 23.591L38.6705 19.9587C39.2205 13.2785 33.9497 7.54929 27.2465 7.54929H27.0976H26.9486C20.2455 7.54929 14.9747 13.2785 15.5247 19.9587L15.834 23.591L13.7257 22.7316C12.2017 22.4451 11.583 22.8003 11.0559 23.591C10.5288 24.3816 11.0559 27.0285 14.1806 27.5143C15.3161 27.6907 15.9601 28.9649 15.7252 30.0901C14.4006 36.4392 7.77424 36.1642 7.48091 36.2066C7.04549 36.2524 6.67882 36.5503 6.52986 36.9743C6.39236 37.3868 6.49549 37.8451 6.80486 38.1545C6.91945 38.2691 8.89028 40.1253 12.6257 40.3774C12.5111 40.9847 12.3278 41.4087 12.3278 41.4087C12.2934 41.4774 12.2819 41.5347 12.259 41.6035C12.2476 41.6275 12.2361 41.6493 12.2361 41.6837C12.2017 41.8097 12.2017 41.9472 12.2132 42.0732C12.2247 42.0847 12.2132 42.0962 12.2132 42.1076C12.2247 42.1305 12.2361 42.1535 12.2361 42.1649C12.259 42.2795 12.3049 42.3712 12.3507 42.4743C12.3736 42.4972 12.3851 42.5316 12.408 42.566C12.408 42.5774 12.4194 42.5889 12.4309 42.6003C12.4424 42.6347 12.4767 42.6462 12.4997 42.6691C12.5799 42.7607 12.6715 42.841 12.7861 42.9097C12.8319 42.9326 12.8778 42.9441 12.9236 42.967C13.0267 43.0128 13.1299 43.0357 13.2444 43.0472C13.2788 43.0472 13.3132 43.0701 13.3476 43.0701C13.4049 43.0701 13.4736 43.0701 13.5309 43.0587L16.5674 42.543C18.4889 42.2268 20.1641 43.2053 21.5941 44.5173C22.5142 45.3618 23.6601 46.5076 27.0976 46.5076C30.5351 46.5076 31.6809 45.3618 32.601 44.5173C34.031 43.2053 35.7062 42.2268 37.6278 42.543L40.6642 43.0587C40.7215 43.0701 40.7903 43.0701 40.8476 43.0701C40.8819 43.0701 40.9163 43.0472 40.9507 43.0472C41.0653 43.0357 41.1684 43.0128 41.2715 42.967C41.3174 42.9441 41.3632 42.9326 41.409 42.9097C41.5236 42.841 41.6153 42.7607 41.6955 42.6691C41.7184 42.6462 41.7528 42.6347 41.7642 42.6003C41.7757 42.5889 41.7872 42.5774 41.7872 42.566C41.8101 42.5316 41.8215 42.4972 41.8444 42.4743C41.8903 42.3712 41.9361 42.2795 41.959 42.1649C41.959 42.1535 41.9705 42.1305 41.9819 42.1076C41.9819 42.0962 41.9705 42.0847 41.9819 42.0732C41.9934 41.9472 41.9934 41.8097 41.959 41.6837C41.959 41.6493 41.9476 41.6264 41.9361 41.6035C41.9132 41.5347 41.9017 41.4774 41.8674 41.4087C41.8674 41.4087 41.684 40.9847 41.5694 40.3774C45.3049 40.1253 47.2757 38.2691 47.3903 38.1545C47.6997 37.8451 47.8028 37.3868 47.6653 36.9743Z" fill="white"/>
<defs>
<linearGradient id="paint0_linear_2_182" x1="27.1676" y1="1.09581" x2="27.1676" y2="48.0452" gradientUnits="userSpaceOnUse">
<stop stop-color="#A4A4A4"/>
<stop offset="0.63" stop-color="#7F7F7F"/>
<stop offset="1" stop-color="#6F6F6F"/>
</linearGradient>
</defs>
</svg>
