<svg width="55" height="55" viewBox="0 0 55 55" fill="none" xmlns="http://www.w3.org/2000/svg">
<rect width="55" height="55" rx="15" fill="#FF5722"/>
<path d="M14.7769 36.6669C15.3154 36.6669 15.9198 36.6669 16.5838 36.6669V23.9529C15.581 24.8634 15.0489 25.965 14.7769 26.7918V36.6669ZM24.7149 23.1014C24.1051 22.814 23.1321 22.4511 22.0046 22.3401V36.6659C22.8863 36.6659 23.7934 36.6659 24.7149 36.6659V23.1014ZM18.3907 36.6669C19.2427 36.6669 20.1525 36.6669 21.1011 36.6669V22.3146C20.0413 22.3419 19.1397 22.5238 18.3907 22.8222V36.6669ZM9.35619 28.421C8.29193 29.236 7.54929 30.5586 7.54929 32.095C7.54929 33.5377 8.26753 34.8121 9.35619 35.6472V28.421ZM42.7795 26.659C41.4749 26.659 40.7169 27.133 40.7169 27.133C40.7169 27.133 39.9589 19.412 32.341 19.412C27.9086 19.412 26.1704 21.8716 25.6184 22.9568V36.6659C33.5914 36.6659 42.1489 36.6659 42.1489 36.6659C42.1489 36.6659 47.4512 36.5804 47.4512 31.7057C47.4512 27.9534 44.0841 26.659 42.7795 26.659ZM12.97 27.6451C12.6131 27.5987 12.2093 27.565 11.7585 27.565C11.557 27.565 11.3601 27.5987 11.1631 27.6314V36.5159C11.5453 36.6105 11.941 36.6669 12.3475 36.6669C12.484 36.6669 12.7026 36.6669 12.97 36.6669V27.6451Z" fill="white"/>
</svg>
