<svg width="55" height="55" viewBox="0 0 55 55" fill="none" xmlns="http://www.w3.org/2000/svg">
<rect width="55" height="55" rx="15" fill="#26E07F"/>
<path d="M28.0395 7.54928C16.7204 7.54928 7.54929 16.7203 7.54929 28.0395C7.54929 39.3586 16.7204 48.5297 28.0395 48.5297C39.3586 48.5297 48.5297 39.3586 48.5297 28.0395C48.5297 16.7203 39.3586 7.54928 28.0395 7.54928ZM28.0395 10.9643C30.2844 10.9553 32.5088 11.3908 34.5845 12.2457C36.6603 13.1006 38.5462 14.358 40.1336 15.9454C41.721 17.5327 42.9784 19.4187 43.8333 21.4944C44.6882 23.5702 45.1237 25.7946 45.1146 28.0395C45.1237 30.2843 44.6882 32.5088 43.8333 34.5845C42.9784 36.6603 41.721 38.5462 40.1336 40.1336C38.5462 41.721 36.6603 42.9784 34.5845 43.8333C32.5088 44.6882 30.2844 45.1237 28.0395 45.1146C25.7946 45.1237 23.5702 44.6882 21.4944 43.8333C19.4187 42.9784 17.5328 41.721 15.9454 40.1336C14.358 38.5462 13.1006 36.6603 12.2457 34.5845C11.3908 32.5088 10.9553 30.2843 10.9643 28.0395C10.9553 25.7946 11.3908 23.5702 12.2457 21.4944C13.1006 19.4187 14.358 17.5327 15.9454 15.9454C17.5328 14.358 19.4187 13.1006 21.4944 12.2457C23.5702 11.3908 25.7946 10.9553 28.0395 10.9643V10.9643ZM25.3177 19.075C21.9966 19.075 19.1023 19.3824 16.3532 20.2498C15.6258 20.3949 15.0197 20.943 15.0197 21.9573C15.0197 22.9699 15.7676 23.8646 16.7801 23.716C17.2138 23.716 17.5075 23.5572 17.7944 23.5572C20.1081 22.9767 22.7172 22.7035 25.3177 22.7035C30.3737 22.7035 35.5628 23.8304 39.0308 25.8521C39.4645 25.999 39.6113 26.1715 40.045 26.1715C41.0593 26.1715 41.7662 25.4253 41.9131 24.411C41.9131 23.5436 41.4793 22.9903 40.8988 22.7035C36.5634 20.2481 30.8074 19.075 25.3177 19.075V19.075ZM24.8379 25.4253C21.8036 25.4253 19.6419 25.859 17.4734 26.4395C16.7545 26.7247 16.3532 27.1738 16.3532 28.0395C16.3532 28.76 16.927 29.4806 17.7944 29.4806C18.0881 29.4806 18.2144 29.467 18.6481 29.3201C20.2361 28.8864 22.4166 28.6269 24.732 28.6269C29.4994 28.6269 33.6487 29.788 36.6846 31.6679C36.9698 31.8148 37.2652 31.9343 37.6972 31.9343C38.5646 31.9343 39.1383 31.2001 39.1383 30.3344C39.1383 29.7538 38.8651 29.1801 38.2846 28.8932C34.528 26.5795 29.7538 25.4253 24.8379 25.4253V25.4253ZM25.3177 31.6679C22.864 31.6679 20.5367 31.9411 18.2213 32.5217C17.6407 32.6686 17.207 33.0818 17.207 33.8023C17.207 34.3829 17.6612 34.9771 18.3818 34.9771C18.5286 34.9771 18.9487 34.8166 19.2355 34.8166C21.1777 34.3637 23.1646 34.1306 25.1589 34.1216C28.7669 34.1216 32.0675 34.9891 34.8166 36.5771C35.1103 36.7239 35.4364 36.8434 35.7233 36.8434C36.3039 36.8434 36.8571 36.4097 37.0039 35.8309C37.0039 35.1035 36.6898 34.8354 36.2561 34.5502C33.0749 32.6686 29.3594 31.6679 25.3177 31.6679V31.6679Z" fill="white"/>
</svg>
