<svg width="55" height="55" viewBox="0 0 55 55" fill="none" xmlns="http://www.w3.org/2000/svg">
<rect width="55" height="55" rx="15" fill="#2AABEE"/>
<path d="M13.3139 26.011C22.3524 22.074 28.378 19.4782 31.3908 18.2242C40.003 14.6432 41.7903 14.0213 42.9577 14.0002C43.2144 13.9961 43.786 14.0595 44.1589 14.361C44.4689 14.6153 44.5561 14.9592 44.5997 15.2007C44.6385 15.4419 44.6917 15.9917 44.6481 16.4208C44.1831 21.3227 42.1633 33.218 41.1364 38.7084C40.7053 41.0315 39.848 41.8103 39.0197 41.8864C37.2178 42.052 35.8519 40.6968 34.1081 39.5541C31.3811 37.7653 29.8408 36.6522 27.1913 34.907C24.13 32.8901 26.116 31.7813 27.8597 29.9698C28.315 29.4956 36.2491 22.2808 36.3992 21.6264C36.4186 21.5446 36.438 21.2394 36.2539 21.0786C36.0747 20.9173 35.8083 20.9725 35.6145 21.0161C35.3385 21.0781 30.9839 23.9592 22.5364 29.6588C21.3013 30.5084 20.1824 30.9226 19.1749 30.9008C18.0705 30.877 15.9392 30.2749 14.3553 29.7605C12.4178 29.1294 10.8727 28.7957 11.0083 27.7237C11.0761 27.1657 11.8463 26.5947 13.3139 26.011Z" fill="white"/>
</svg>
