<svg width="55" height="55" viewBox="0 0 55 55" fill="none" xmlns="http://www.w3.org/2000/svg">
<rect width="55" height="55" rx="15" fill="#2775CA"/>
<path d="M28.0384 10.7843C37.5685 10.7843 45.2933 18.5091 45.2933 28.0392C45.2933 37.5693 37.5685 45.2941 28.0384 45.2941C18.5083 45.2941 10.7835 37.5693 10.7835 28.0392C10.7835 18.5091 18.5083 10.7843 28.0384 10.7843ZM31.6533 16.7804C31.3902 16.651 31.127 16.7804 31.0623 17.0425C30.9965 17.1083 30.9965 17.174 30.9965 17.3045V18.2212L31.0073 18.3334C31.0636 18.5552 31.2 18.7484 31.3902 18.8758C36.517 20.7091 39.1463 26.4033 37.2396 31.4428C36.2539 34.1928 34.0852 36.286 31.3902 37.2685C31.127 37.3989 30.9965 37.5952 30.9965 37.9231V38.8397L31.0019 38.9346C31.0122 39.0382 31.0555 39.1357 31.1254 39.2128C31.1953 39.2899 31.2881 39.3425 31.3902 39.3628C31.456 39.3628 31.5875 39.3628 31.6533 39.2981C33.1325 38.8361 34.5056 38.0862 35.6937 37.0914C36.8819 36.0966 37.8615 34.8766 38.5761 33.5017C39.2908 32.1267 39.7265 30.624 39.858 29.08C39.9895 27.536 39.8143 25.9812 39.3425 24.5052C38.1606 20.7738 35.2682 17.9581 31.6533 16.7804ZM24.6866 16.7157C24.6209 16.7157 24.4893 16.7157 24.4235 16.7804C22.9444 17.2423 21.5712 17.9923 20.3831 18.9871C19.195 19.9819 18.2154 21.2018 17.5007 22.5768C16.786 23.9517 16.3503 25.4545 16.2188 26.9985C16.0873 28.5425 16.2625 30.0972 16.7343 31.5733C17.9163 35.2399 20.7428 38.0546 24.4235 39.2323C24.6866 39.3628 24.9498 39.2323 25.0145 38.9702C25.0803 38.9055 25.0803 38.8386 25.0803 38.7082V37.7915L25.0695 37.7052C25.0242 37.523 24.8549 37.3148 24.6866 37.2027C19.5598 35.3693 16.9306 29.6752 18.8372 24.6357C19.8229 21.8857 21.9916 19.7925 24.6866 18.81C24.9498 18.6795 25.0803 18.4833 25.0803 18.1554V17.2387L25.0749 17.1438C25.0646 17.0403 25.0214 16.9428 24.9514 16.8657C24.8815 16.7886 24.7887 16.736 24.6866 16.7157ZM28.4989 20.1192H27.5121L27.4172 20.1279C27.2015 20.171 27.0441 20.3565 26.9859 20.6434V22.1488L26.7626 22.1834C24.9207 22.5112 23.7667 23.7827 23.7667 25.3561C23.7667 27.5151 25.0803 28.366 27.8411 28.6938C29.6819 29.0206 30.2729 29.4142 30.2729 30.4614C30.2729 31.5075 29.353 32.2279 28.1042 32.2279C26.3949 32.2279 25.8039 31.5085 25.6065 30.5261C25.5418 30.2651 25.3434 30.1335 25.1461 30.1335H24.0288L23.9436 30.1411C23.8373 30.1583 23.7408 30.2134 23.6719 30.2963C23.6031 30.3792 23.5667 30.4842 23.5694 30.5919V30.6566L23.605 30.8507C23.9177 32.3864 24.9703 33.4853 27.0527 33.7991V35.3704L27.0614 35.4653C27.1045 35.6788 27.2911 35.8363 27.579 35.8935H28.5647L28.6596 35.8848C28.8753 35.8417 29.0327 35.6562 29.091 35.3704V33.7981L29.3142 33.7549C31.1615 33.3645 32.3769 32.0284 32.3769 30.3287C32.3769 28.0382 30.9965 27.2531 28.2358 26.9252C26.2633 26.6632 25.8697 26.1401 25.8697 25.2234C25.8697 24.3068 26.5275 23.718 27.8411 23.718C29.0241 23.718 29.6819 24.1105 30.0098 25.093C30.0439 25.188 30.1064 25.2702 30.1887 25.3286C30.2711 25.3871 30.3693 25.4188 30.4703 25.4197H31.5217L31.6069 25.4133C31.7137 25.3963 31.8106 25.3411 31.8796 25.258C31.9487 25.1748 31.9851 25.0694 31.9822 24.9614V24.8967L31.9423 24.7101C31.7804 24.0398 31.4112 23.4376 30.8873 22.9892C30.3634 22.5407 29.7114 22.269 29.0241 22.2125V20.6434L29.0155 20.5484C28.9723 20.3338 28.7868 20.1764 28.4989 20.1192Z" fill="white"/>
</svg>
