<svg width="55" height="55" viewBox="0 0 55 55" fill="none" xmlns="http://www.w3.org/2000/svg">
<rect width="55" height="55" rx="15" fill="#2775CA"/>
<path d="M28.0362 10.7852C37.5662 10.7852 45.2911 18.51 45.2911 28.0401C45.2911 37.5702 37.5662 45.295 28.0362 45.295C18.5061 45.295 10.7812 37.5702 10.7812 28.0401C10.7812 18.51 18.5061 10.7852 28.0362 10.7852ZM31.6511 16.7812C31.3879 16.6518 31.1248 16.7812 31.0601 17.0433C30.9943 17.1091 30.9943 17.1749 30.9943 17.3054V18.222L31.0051 18.3342C31.0614 18.556 31.1977 18.7492 31.3879 18.8766C36.5148 20.71 39.144 26.4041 37.2373 31.4436C36.2516 34.1936 34.0829 36.2868 31.3879 37.2693C31.1248 37.3998 30.9943 37.596 30.9943 37.9239V38.8405L30.9997 38.9355C31.0099 39.039 31.0532 39.1365 31.1231 39.2136C31.193 39.2907 31.2859 39.3433 31.3879 39.3636C31.4537 39.3636 31.5853 39.3636 31.6511 39.2989C33.1302 38.837 34.5034 38.087 35.6915 37.0922C36.8796 36.0974 37.8592 34.8774 38.5739 33.5025C39.2886 32.1276 39.7242 30.6248 39.8558 29.0808C39.9873 27.5368 39.8121 25.9821 39.3403 24.506C38.1583 20.7747 35.266 17.9589 31.6511 16.7812ZM24.6844 16.7165C24.6186 16.7165 24.487 16.7165 24.4212 16.7812C22.9421 17.2432 21.5689 17.9931 20.3808 18.9879C19.1927 19.9827 18.2131 21.2027 17.4984 22.5776C16.7837 23.9526 16.3481 25.4553 16.2166 26.9993C16.085 28.5433 16.2602 30.0981 16.732 31.5741C17.914 35.2407 20.7406 38.0555 24.4212 39.2331C24.6844 39.3636 24.9475 39.2331 25.0122 38.971C25.078 38.9063 25.078 38.8395 25.078 38.709V37.7923L25.0672 37.706C25.0219 37.5238 24.8526 37.3156 24.6844 37.2035C19.5575 35.3702 16.9283 29.676 18.835 24.6365C19.8207 21.8865 21.9894 19.7933 24.6844 18.8108C24.9475 18.6804 25.078 18.4841 25.078 18.1562V17.2396L25.0726 17.1447C25.0624 17.0411 25.0191 16.9436 24.9492 16.8665C24.8793 16.7894 24.7865 16.7368 24.6844 16.7165ZM28.4966 20.1201H27.5099L27.415 20.1287C27.1993 20.1718 27.0418 20.3573 26.9836 20.6442V22.1497L26.7604 22.1842C24.9184 22.512 23.7645 23.7835 23.7645 25.3569C23.7645 27.5159 25.078 28.3668 27.8388 28.6947C29.6797 29.0214 30.2707 29.4151 30.2707 30.4622C30.2707 31.5083 29.3508 32.2287 28.1019 32.2287C26.3926 32.2287 25.8016 31.5094 25.6043 30.5269C25.5396 30.2659 25.3412 30.1344 25.1438 30.1344H24.0265L23.9413 30.1419C23.835 30.1591 23.7385 30.2142 23.6697 30.2971C23.6009 30.38 23.5644 30.485 23.5671 30.5927V30.6574L23.6027 30.8515C23.9155 32.3872 24.968 33.4861 27.0505 33.8V35.3712L27.0591 35.4661C27.1022 35.6797 27.2888 35.8371 27.5767 35.8943H28.5624L28.6573 35.8856C28.873 35.8425 29.0305 35.657 29.0887 35.3712V33.7989L29.3119 33.7557C31.1593 33.3654 32.3747 32.0292 32.3747 30.3296C32.3747 28.039 30.9943 27.2539 28.2335 26.926C26.2611 26.664 25.8674 26.1409 25.8674 25.2243C25.8674 24.3076 26.5253 23.7188 27.8388 23.7188C29.0218 23.7188 29.6797 24.1113 30.0075 25.0938C30.0417 25.1888 30.1041 25.271 30.1865 25.3295C30.2688 25.3879 30.3671 25.4197 30.468 25.4205H31.5195L31.6047 25.4141C31.7114 25.3971 31.8083 25.3419 31.8774 25.2588C31.9464 25.1756 31.9829 25.0702 31.98 24.9622V24.8975L31.9401 24.7109C31.7782 24.0406 31.409 23.4384 30.885 22.99C30.3611 22.5416 29.7091 22.2698 29.0218 22.2133V20.6442L29.0132 20.5493C28.9701 20.3347 28.7846 20.1772 28.4966 20.1201Z" fill="white"/>
</svg>
