<svg width="21" height="21" viewBox="0 0 21 21" fill="none" xmlns="http://www.w3.org/2000/svg">
<path d="M10.5 10.5C12.9162 10.5 14.875 8.54125 14.875 6.125C14.875 3.70875 12.9162 1.75 10.5 1.75C8.08375 1.75 6.125 3.70875 6.125 6.125C6.125 8.54125 8.08375 10.5 10.5 10.5Z" stroke="black" stroke-width="2"/>
<path d="M14.8731 19.25H4.60585C4.35768 19.2501 4.11235 19.1973 3.88612 19.0953C3.65989 18.9933 3.45794 18.8443 3.29368 18.6583C3.12942 18.4723 3.0066 18.2535 2.93338 18.0163C2.86016 17.7792 2.8382 17.5293 2.86897 17.283L3.21023 14.5495C3.28958 13.9144 3.59821 13.3303 4.07808 12.9068C4.55794 12.4833 5.17598 12.2498 5.81598 12.25H6.1231M16.6231 11.375V16.625M13.9981 14H19.2481" stroke="black" stroke-width="2" stroke-linecap="round" stroke-linejoin="round"/>
</svg>
