<svg width="88" height="18" viewBox="0 0 88 18" fill="none" xmlns="http://www.w3.org/2000/svg">
<path fill-rule="evenodd" clip-rule="evenodd" d="M13.1545 1.08794V2.99327C13.1545 2.99327 13.1291 3.54142 12.1374 3.54142H4.07153C4.07153 3.54142 3.2625 3.48963 3.2625 4.37683V6.83029C3.2625 6.83029 3.41883 7.48299 4.35879 7.48299H10.832C10.832 7.48299 13.6245 7.71749 13.6245 10.6937V14.8952C13.6245 14.8952 13.5981 18.0004 9.37028 18.0004H1.33079C1.33079 18.0004 0 17.9505 0 16.8269V15.5743C0 15.5743 0.026381 14.7134 1.22625 14.7134H10.3132C10.3132 14.7134 11.4857 13.2253 10.4167 10.5628H3.23612C3.23612 10.5628 0.417216 10.3019 0.287263 7.79566C0.157311 5.28943 -0.260883 0.539798 3.00161 0.539798H12.0377C12.7608 0.528073 13.1594 0.654116 13.1594 1.08794" fill="black"/>
<path fill-rule="evenodd" clip-rule="evenodd" d="M20.2764 0.0283394H22.0038C22.0038 0.0283394 22.7699 -0.0693711 22.9692 0.680056C23.1685 1.42948 26.7671 13.6753 26.7671 13.6753L30.7224 1.28976C30.7224 1.28976 31.0224 0.019543 31.975 0.019543C32.9277 0.019543 33.9849 -0.202257 34.363 0.946799C34.7412 2.09585 38.2391 13.6577 38.2391 13.6577L42.5139 0.639998C42.5139 0.639998 42.7416 0 43.2838 0H45.2683C45.3465 0.0156607 45.4205 0.0479048 45.4851 0.09456C45.5498 0.141215 45.6038 0.201201 45.6433 0.270465C45.6828 0.339728 45.7071 0.416662 45.7143 0.496082C45.7216 0.575503 45.7118 0.655564 45.6855 0.730866C45.5292 1.34448 40.6047 16.1181 40.6047 16.1181C40.6047 16.1181 40.0038 17.9579 38.2685 17.9579C36.5331 17.9579 35.6059 15.5699 35.6059 15.5699L32.5769 5.3906L29.2636 15.8777C29.2636 15.8777 28.7086 17.8319 26.7124 17.8319C24.7162 17.8319 24.0235 15.1038 24.0235 15.1038L19.6774 0.869611C19.6774 0.869611 19.4488 0.0166143 20.2764 0.0283394Z" fill="black"/>
<path fill-rule="evenodd" clip-rule="evenodd" d="M53.4917 3.24393H59.5496C59.5496 3.24393 61.5038 3.0876 61.5038 5.14926V12.4833C61.5038 12.4833 61.6083 14.5195 59.6473 14.5195H53.2806C53.2806 14.5195 52.0016 14.6495 52.0016 12.6631V4.70273C52.0016 4.70273 52.0016 3.26738 53.4897 3.23709L53.4917 3.24393ZM53.4633 0H60.2238C60.2238 0 64.3999 0.522741 64.3999 4.25522V13.2337C64.3999 13.2337 64.4263 17.6189 59.6757 17.6189H53.4116C53.4116 17.6189 49.0264 17.5407 49.0264 12.6357C49.0264 7.73072 49 4.07446 49 4.07446C49 4.07446 48.9971 0.0566749 53.4633 0.00391217V0Z" fill="black"/>
<path fill-rule="evenodd" clip-rule="evenodd" d="M74.0749 0.308594H83.4706C83.4706 0.308594 86.3305 0.455156 87.1512 3.5193C87.1512 3.5193 88.2212 10.5143 84.2542 10.5143H76.0584V17.0266C76.0584 17.0266 75.8883 17.9402 75.0666 17.9402H73.7485C73.7485 17.9402 72.874 17.9265 72.874 16.7256V8.36664C72.874 8.36664 72.9649 7.66216 73.983 7.66216H82.6156C82.6156 7.66216 84.3255 7.78625 84.3255 5.84185V4.2785C84.3255 4.2785 84.4301 3.43039 82.4202 3.43039H73.7153C73.7153 3.43039 72.8672 3.44309 72.8672 1.99505C72.8672 0.547004 74.0749 0.311522 74.0749 0.311522" fill="black"/>
</svg>
