<svg width="15" height="16" viewBox="0 0 15 16" fill="none" xmlns="http://www.w3.org/2000/svg">
<path fill-rule="evenodd" clip-rule="evenodd" d="M8.19016 2.71377L9.33229 5.08563C9.44423 5.31848 9.66029 5.47994 9.91084 5.5173L12.4658 5.8996C13.0971 5.99434 13.3483 6.78963 12.8914 7.24533L11.0439 9.09077C10.8623 9.27225 10.7796 9.53312 10.8226 9.78932L11.2586 12.3947C11.366 13.0392 10.7061 13.5309 10.1419 13.226L7.85826 11.9951C7.63439 11.8743 7.36626 11.8743 7.14174 11.9951L4.85813 13.226C4.29389 13.5309 3.634 13.0392 3.74203 12.3947L4.1774 9.78932C4.22036 9.53312 4.13771 9.27225 3.95614 9.09077L2.10855 7.24533C1.6517 6.78963 1.9029 5.99434 2.53417 5.8996L5.08916 5.5173C5.33971 5.47994 5.55642 5.31848 5.66836 5.08563L6.80984 2.71377C7.09228 2.12731 7.90772 2.12731 8.19016 2.71377Z" stroke="black" stroke-width="1.5" stroke-linecap="round" stroke-linejoin="round"/>
</svg>
