<svg xmlns="http://www.w3.org/2000/svg" viewBox="0 0 970 970"><defs><style>.cls-1{fill:#fff;}</style></defs><title>Asset 1</title><g id="Layer_2" data-name="Layer 2"><g id="Layer_1-2" data-name="Layer 1"><circle cx="485" cy="485" r="485"/><path class="cls-1" d="M218.53,471.55S251,468.67,251,497.44s6.58,61.65-38.23,61.65H158.93s-18.09.42-18.09-10.68-3.28-20.76,20.76-20.76H214c6.57,0,10.68,1.85,10.68-8.42s2.88-19.32-11.51-19.32h-39c-9,0-32.66-2.47-32.66-30.83v-23c0-8.22,2.24-28.77,30.19-28.77h60.42c7.4,0,16.44-1.64,16.44,12.74s-1.23,15.21-21.37,15.21h-51c-4.52,0-5.75,0-5.75,7.81V466.2c0,5.35,2.88,5.76,9.86,5.76S218.53,471.55,218.53,471.55Z"/><path class="cls-1" d="M396.91,465.79s-20.14,66.59-23,74.81S356.63,564.85,343.48,555s-21.37-42.74-24.66-53.43S297,428.8,295.39,423.46,297,412.77,304,412.77s17.26-2.47,20.55,9.45,27.13,92.24,27.13,92.24,24.66-74.15,27.54-84,8.43-19,19-19,15.51,7.92,18,16.14,25.89,86.89,25.89,86.89,27.95-87.3,31.24-93.88,7.81-11.31,18.09-9.15,12.33,4.63,9.45,14.9-33.29,107.28-38.64,116.32-8.22,15.44-20.14,15.44-19.31-10.91-24.66-27.36S396.91,465.79,396.91,465.79Z"/><path class="cls-1" d="M599.55,415.24c-56.73,0-55.49,22.19-55.49,57.95V525.8c0,15.21,18.9,32.29,33.7,32.29h43.57c48.5,0,48.5-27.77,48.5-41.74V469.08C669.83,421.81,656.27,415.24,599.55,415.24ZM642.7,517.17a11.92,11.92,0,0,1-11.92,11.92H583.93A11.92,11.92,0,0,1,572,517.17v-60a11.92,11.92,0,0,1,11.92-11.92h46.85a11.92,11.92,0,0,1,11.92,11.92Z"/><path class="cls-1" d="M739.7,500.32v43.57c0,10.27-2.05,13.56-13.56,13.56s-15.62,1.64-15.62-23.43V486.67c0-7.72,1.65-14.71,21-14.71H782c11.1,0,19.32,1.23,19.32-9s4.93-19.73-10.28-19.73H722.85c-12.33,0-19.32-27.95,7.4-27.95h61.24c11.51,0,37.82,6.16,37.82,44s-22.61,41.1-59.4,41.1Z"/></g></g></svg>