<svg width="55" height="55" viewBox="0 0 55 55" fill="none" xmlns="http://www.w3.org/2000/svg">
<rect width="55" height="55" rx="15" fill="#FD6578"/>
<path d="M31.5503 33.338C29.2866 35.9643 25.287 35.9643 23.0232 33.338V33.338C21.0742 31.0752 18.7597 27.7053 18.7597 24.4941C18.758 21.1403 20.8357 18.116 24.0234 16.8324C27.2111 15.5489 30.8804 16.2591 33.3191 18.6317C34.9227 20.1836 35.8211 22.2946 35.8139 24.4941C35.8139 27.7053 33.4994 31.0752 31.5503 33.338V33.338ZM27.2868 20.9419C25.9812 20.9419 24.7747 21.6189 24.1219 22.718C23.4691 23.8171 23.4691 25.1712 24.1219 26.2702C24.7747 27.3693 25.9812 28.0464 27.2868 28.0464C29.3051 28.0464 30.9412 26.456 30.9412 24.4941C30.9412 22.5323 29.3051 20.9419 27.2868 20.9419Z" fill="white"/>
</svg>
