<svg width="55" height="57" viewBox="0 0 55 57" fill="none" xmlns="http://www.w3.org/2000/svg">
<rect y="0.996826" width="55" height="55.704" rx="15" fill="#FD6578"/>
<path d="M31.5503 34.7616C29.2956 37.4108 25.2779 37.4108 23.0232 34.7616C21.0742 32.4699 18.7597 29.0568 18.7597 25.8045C18.758 22.4077 20.8357 19.3447 24.0234 18.0447C27.2111 16.7448 30.8804 17.4641 33.3191 19.8671C34.9227 21.4388 35.8211 23.5768 35.8139 25.8045C35.8139 29.0568 33.4994 32.4699 31.5503 34.7616ZM27.2868 22.2068C25.9812 22.2068 24.7747 22.8925 24.1219 24.0056C23.4691 25.1188 23.4691 26.4902 24.1219 27.6034C24.7747 28.7165 25.9812 29.4022 27.2868 29.4022C29.3051 29.4022 30.9412 27.7915 30.9412 25.8045C30.9412 23.8175 29.3051 22.2068 27.2868 22.2068Z" fill="white"/>
</svg>
