<svg width="55" height="55" viewBox="0 0 55 55" fill="none" xmlns="http://www.w3.org/2000/svg">
<rect width="55" height="55" rx="15" fill="#F55376"/>
<path d="M17.7928 14.2893V36.8775C17.6721 36.9295 14.5631 37.5681 13.179 38.0081C11.5183 38.5351 10.5008 39.7803 10.2258 41.3493C9.83617 43.5768 11.0599 45.566 13.156 46.1251C15.2415 46.6813 17.278 46.3024 19.0151 44.9533C20.3794 43.8946 20.8484 42.3806 20.8484 40.7031V21.2728L36.1262 17.9988V33.8204C36.0055 33.8724 32.8964 34.511 31.5123 34.951C29.8516 35.4781 28.8341 36.7232 28.5591 38.2922C28.1695 40.5197 29.3933 42.5089 31.4894 43.0681C33.5748 43.6242 35.6113 43.2453 37.3484 41.8963C38.7127 40.839 39.1817 39.325 39.1817 37.6475V9.70598L17.7928 14.2893Z" fill="white"/>
<path d="M20.8496 13.6335L17.794 14.2889V21.9278L20.8496 21.2724V13.6335Z" fill="white"/>
<path d="M36.1268 10.3614V18.0003L39.1824 17.3449V9.70598L36.1268 10.3614Z" fill="white"/>
</svg>
