<svg width="54" height="56" viewBox="0 0 54 56" fill="none" xmlns="http://www.w3.org/2000/svg">
<rect y="0.161621" width="53.9208" height="55.704" rx="15" fill="#F55376"/>
<path d="M17.4437 14.6339V37.5112C17.3254 37.5638 14.2774 38.2106 12.9204 38.6562C11.2923 39.1901 10.2947 40.4511 10.0251 42.0403C9.64319 44.2963 10.8429 46.3109 12.8979 46.8772C14.9424 47.4405 16.939 47.0567 18.642 45.6904C19.9795 44.6181 20.4393 43.0847 20.4393 41.3857V21.7067L35.4173 18.3908V34.415C35.299 34.4676 32.251 35.1144 30.894 35.56C29.2658 36.0939 28.2683 37.3549 27.9987 38.944C27.6168 41.2001 28.8165 43.2147 30.8715 43.781C32.916 44.3442 34.9125 43.9605 36.6155 42.5942C37.9531 41.5234 38.4129 39.99 38.4129 38.2911V9.99188L17.4437 14.6339Z" fill="white"/>
<path d="M20.4405 13.9696L17.4449 14.6334V22.3701L20.4405 21.7063V13.9696Z" fill="white"/>
<path d="M35.4179 10.6557V18.3924L38.4135 17.7286V9.99188L35.4179 10.6557Z" fill="white"/>
</svg>
