<svg width="55" height="55" viewBox="0 0 55 55" fill="none" xmlns="http://www.w3.org/2000/svg">
<rect width="55" height="55" rx="15" fill="url(#paint0_linear_2_255)"/>
<path d="M18.1154 40.6208V14.7381H28.726C31.8449 14.7381 34.2054 15.3398 35.8179 16.5434C37.4304 17.7469 38.234 19.5108 38.234 21.8312C38.234 23.0995 37.9105 24.2176 37.2686 25.183C36.6215 26.1484 35.7221 26.8563 34.569 27.3067C35.8839 27.6406 36.9192 28.3071 37.6775 29.3191C38.4372 30.3233 38.8216 31.5515 38.8216 33.0125C38.8216 35.4999 38.0334 37.3854 36.4559 38.664C34.8783 39.9426 32.6343 40.5949 29.7173 40.6208H18.1154ZM23.2919 25.0911H28.9382C31.608 25.0458 32.9475 24.0248 32.9475 21.927C32.9475 20.7545 32.6084 19.9094 31.9316 19.3944C31.2547 18.8793 30.1871 18.6205 28.726 18.6205H23.2919V25.0911ZM23.2919 28.9735V36.7384H29.5607C30.8044 36.7384 33.645 36.1314 33.645 33.362C33.645 30.5925 32.1995 29.0085 29.7626 28.9735H23.2919Z" fill="white"/>
<path d="M21.9974 10.856H25.8798V17.3267H21.9974V10.856ZM28.4681 10.856H32.3505V17.3267H28.4681V10.856ZM21.9974 38.0328H25.8798V44.5035H21.9974V38.0328ZM28.4681 38.0328H32.3505V44.5035H28.4681V38.0328Z" fill="white"/>
<defs>
<linearGradient id="paint0_linear_2_255" x1="27.5" y1="0" x2="25.3431" y2="91.6667" gradientUnits="userSpaceOnUse">
<stop offset="0.0231267" stop-color="#FFC107"/>
<stop offset="1" stop-color="white" stop-opacity="0.97"/>
</linearGradient>
</defs>
</svg>
