<svg width="52" height="57" viewBox="0 0 52 57" fill="none" xmlns="http://www.w3.org/2000/svg">
<rect y="0.580811" width="51.9011" height="55.704" rx="15" fill="url(#paint0_linear_93002_469)"/>
<path d="M17.0947 41.7216V15.5076H27.1074C30.0506 15.5076 32.2781 16.117 33.7997 17.336C35.3214 18.5549 36.0797 20.3414 36.0797 22.6915C36.0797 23.976 35.7744 25.1084 35.1687 26.0862C34.5581 27.064 33.7093 27.781 32.6212 28.2371C33.862 28.5752 34.839 29.2503 35.5546 30.2752C36.2715 31.2923 36.6342 32.5362 36.6342 34.016C36.6342 36.5351 35.8904 38.4448 34.4018 39.7398C32.9131 41.0348 30.7955 41.6954 28.0429 41.7216H17.0947ZM21.9795 25.9932H27.3077C29.8271 25.9473 31.0911 24.9132 31.0911 22.7885C31.0911 21.601 30.7711 20.7451 30.1324 20.2235C29.4937 19.7018 28.4862 19.4397 27.1074 19.4397H21.9795V25.9932ZM21.9795 29.9253V37.7895H27.8951C29.0687 37.7895 31.7493 37.1748 31.7493 34.3699C31.7493 31.565 30.3852 29.9607 28.0856 29.9253H21.9795Z" fill="white"/>
<path d="M20.758 11.5757H24.4216V18.1292H20.758V11.5757ZM26.8641 11.5757H30.5277V18.1292H26.8641V11.5757ZM20.758 39.1004H24.4216V45.6539H20.758V39.1004ZM26.8641 39.1004H30.5277V45.6539H26.8641V39.1004Z" fill="white"/>
<defs>
<linearGradient id="paint0_linear_93002_469" x1="25.9505" y1="0.580811" x2="23.6062" y2="93.413" gradientUnits="userSpaceOnUse">
<stop offset="0.0231267" stop-color="#FFC107"/>
<stop offset="1" stop-color="white" stop-opacity="0.97"/>
</linearGradient>
</defs>
</svg>
