<svg width="52" height="57" viewBox="0 0 52 57" fill="none" xmlns="http://www.w3.org/2000/svg">
<rect y="0.971191" width="51.9011" height="55.704" rx="15" fill="#42D755"/>
<path fill-rule="evenodd" clip-rule="evenodd" d="M19.2813 17.0602C18.7695 15.8378 18.2303 15.813 17.7416 15.7913C17.3422 15.7728 16.8866 15.7743 16.4311 15.7743C15.9755 15.7743 15.2345 15.9585 14.6073 16.6934C13.9802 17.4284 12.2127 19.2032 12.2127 22.8147C12.2127 26.4262 14.6635 29.9169 15.0052 30.4059C15.3469 30.8949 19.7369 38.5433 26.6887 41.4864C32.4656 43.9311 33.642 43.4453 34.8963 43.323C36.1506 43.2008 38.9432 41.5483 39.5126 39.8338C40.0821 38.1194 40.0821 36.6509 39.912 36.3446C39.7404 36.0382 39.2848 35.8556 38.6015 35.4873C37.9181 35.1191 34.5546 33.3443 33.9275 33.0998C33.3004 32.8553 32.8448 32.7331 32.3878 33.4681C31.9322 34.2015 30.6217 35.8556 30.2223 36.3446C29.823 36.8351 29.4236 36.897 28.7403 36.5287C28.0569 36.1604 25.854 35.3868 23.2402 32.8863C21.2074 30.9413 19.8349 28.5383 19.4356 27.8033C19.0362 27.0699 19.3923 26.6722 19.7354 26.3055C20.0425 25.9759 20.4188 25.4482 20.7619 25.0196C21.1036 24.591 21.2175 24.2847 21.4453 23.7957C21.6731 23.3052 21.5592 22.8766 21.3876 22.5099C21.2189 22.1416 19.8897 18.5116 19.2813 17.0602Z" fill="white"/>
</svg>
