<svg width="55" height="55" viewBox="0 0 55 55" fill="none" xmlns="http://www.w3.org/2000/svg">
<rect width="55" height="55" rx="15" fill="#42D755"/>
<path fill-rule="evenodd" clip-rule="evenodd" d="M20.4326 15.8856C19.8902 14.6787 19.3188 14.6542 18.8009 14.6328C18.3777 14.6145 17.8949 14.616 17.4121 14.616C16.9294 14.616 16.1441 14.7978 15.4795 15.5235C14.8149 16.2492 12.9419 18.0016 12.9419 21.5674C12.9419 25.1332 15.5391 28.5799 15.9012 29.0627C16.2633 29.5455 20.9153 37.0973 28.2823 40.0031C34.4041 42.417 35.6508 41.9373 36.9799 41.8166C38.3091 41.6959 41.2684 40.0642 41.8719 38.3714C42.4753 36.6787 42.4753 35.2288 42.2951 34.9263C42.1132 34.6238 41.6305 34.4435 40.9063 34.0799C40.1821 33.7163 36.6178 31.9639 35.9533 31.7225C35.2887 31.4812 34.8059 31.3605 34.3216 32.0862C33.8388 32.8103 32.4501 34.4435 32.0269 34.9263C31.6037 35.4106 31.1805 35.4717 30.4563 35.1081C29.7321 34.7445 27.3977 33.9806 24.6278 31.5117C22.4737 29.5913 21.0192 27.2187 20.596 26.493C20.1728 25.7688 20.5502 25.3762 20.9138 25.0141C21.2392 24.6887 21.638 24.1677 22.0016 23.7445C22.3637 23.3213 22.4844 23.0188 22.7258 22.536C22.9671 22.0517 22.8464 21.6285 22.6646 21.2664C22.4859 20.9028 21.0773 17.3187 20.4326 15.8856Z" fill="white"/>
</svg>
