<svg width="55" height="57" viewBox="0 0 55 57" fill="none" xmlns="http://www.w3.org/2000/svg">
<rect x="0.920776" y="0.364807" width="53.9208" height="55.704" rx="15" fill="#57CF65"/>
<g opacity="0.05">
<path opacity="0.05" d="M28.5149 13.5764C28.5508 13.5764 28.5853 13.5764 28.6212 13.5764C35.4602 13.6491 39.675 16.8041 41.1443 18.1224C41.4739 18.418 41.4813 18.9348 41.1713 19.252L38.8033 22.0155C38.6595 22.1641 38.4678 22.2415 38.2746 22.2415C38.1383 22.2415 38.0005 22.2028 37.8791 22.1208C36.6824 21.3161 34.2964 18.9116 30.0367 18.9116C27.4155 18.9116 25.8189 19.9452 25.6526 21.296C25.4219 23.1838 26.6426 24.8147 30.3782 25.6858C38.6565 27.6153 40.0494 32.5978 39.1702 36.6224C38.3614 40.3282 34.262 44.1331 26.9961 44.1331C26.8134 44.1331 26.6292 44.1316 26.4419 44.1269C21.0319 43.9908 17.4851 40.5495 16.2854 39.1786C16.0203 38.8768 16.0292 38.4219 16.3018 38.1264L18.7942 35.2236C18.941 35.0642 19.1372 34.9822 19.3349 34.9822C19.4952 34.9822 19.6569 35.0364 19.7932 35.1462C20.8986 36.0437 23.4568 38.3244 26.8269 38.5148C27.1474 38.5333 27.456 38.5411 27.748 38.5411C31.0267 38.5411 32.5814 37.4394 32.7971 35.8286C33.0203 34.1652 32.2354 32.7556 27.8888 31.5904C20.1227 29.5093 18.7298 24.8286 19.2076 20.9185C19.7063 16.8351 23.7744 13.5764 28.5149 13.5764ZM28.5149 12.0291C23.0584 12.0291 18.3164 15.8494 17.7218 20.7251C17.2919 24.2468 17.9914 30.5367 27.5129 33.0883C31.509 34.159 31.3772 35.1431 31.3143 35.6166C31.1435 36.8947 28.5419 36.9953 27.7495 36.9953C27.4814 36.9953 27.2013 36.9875 26.9093 36.9705C24.2327 36.8189 22.1013 35.0658 20.957 34.125L20.7204 33.9316C20.3249 33.6113 19.8352 33.4364 19.3364 33.4364C18.7253 33.4364 18.1337 33.6995 17.7098 34.159L15.1815 37.102C14.4086 37.9391 14.3907 39.3271 15.177 40.2215C16.567 41.8106 20.4493 45.5273 26.406 45.6774C26.6052 45.682 26.8014 45.6836 26.9961 45.6836C35.1007 45.6836 39.684 41.3046 40.6306 36.9659C41.2282 34.2286 40.8223 31.6523 39.4563 29.5186C37.8102 26.9453 34.8656 25.1489 30.7062 24.1803C28.1914 23.5938 26.9901 22.6902 27.1369 21.4941C27.1804 21.1351 28.076 20.4636 30.0352 20.4636C33.1491 20.4636 35.0768 21.9304 36.3514 22.9022C36.621 23.1064 36.8561 23.2859 37.0598 23.4221C37.4208 23.665 37.8402 23.7934 38.2731 23.7934C38.8707 23.7934 39.4324 23.5536 39.8577 23.1172L39.8922 23.0817L39.9236 23.0445L42.2677 20.3088C42.6856 19.857 42.9132 19.2458 42.8938 18.6238C42.8728 17.9847 42.5942 17.3782 42.1254 16.9573C40.5033 15.5028 35.9425 12.1095 28.6362 12.0321L28.5149 12.0291Z" fill="black"/>
<path opacity="0.05" d="M34.9744 10.1953C35.4492 10.1953 35.8057 10.6472 35.7069 11.1268L34.4502 17.3007L28.3886 17.016L29.6513 10.8096C29.7231 10.4522 30.0302 10.1953 30.3837 10.1953H34.9744ZM34.9744 8.64801H30.3837C29.3247 8.64801 28.4006 9.42477 28.1849 10.4955L26.9223 16.6988L26.5598 18.4798L28.3197 18.5618L34.3813 18.8465L35.6529 18.9068L35.9151 17.6194L37.1717 11.4456C37.3125 10.7632 37.1477 10.0561 36.7194 9.50988C36.2925 8.96212 35.6559 8.64801 34.9744 8.64801Z" fill="black"/>
<path opacity="0.05" d="M29.9123 39.5947L28.4624 46.7171C28.3905 47.0745 28.0834 47.3314 27.73 47.3314H23.1392C22.6629 47.3314 22.3079 46.8795 22.4053 46.3983L23.7908 39.5947H29.9123ZM31.7575 38.0474H29.9123H23.7908H22.576L22.3259 39.2759L20.9404 46.0796C20.8011 46.7697 20.9674 47.4768 21.3958 48.0215C21.8241 48.5661 22.4592 48.8787 23.1392 48.8787H27.73C28.7889 48.8787 29.7131 48.1019 29.9287 47.0312L31.3771 39.9119L31.7575 38.0474Z" fill="black"/>
</g>
<g opacity="0.07">
<path opacity="0.07" d="M28.5128 13.5757C28.5488 13.5757 28.5832 13.5757 28.6192 13.5757C35.4581 13.6484 39.6729 16.8034 41.1423 18.1218C41.4718 18.4173 41.4793 18.9341 41.1692 19.2513L38.8012 22.0148C38.6574 22.1634 38.4657 22.2408 38.2725 22.2408C38.1362 22.2408 37.9984 22.2021 37.8771 22.1201C36.6803 21.3155 34.2943 18.9109 30.0346 18.9109C27.4135 18.9109 25.8168 19.9445 25.6506 21.2953C25.4199 23.1831 26.6406 24.814 30.3761 25.6851C38.6544 27.6146 40.0474 32.5971 39.1682 36.6217C38.3594 40.3275 34.2599 44.1324 26.9941 44.1324C26.8113 44.1324 26.6271 44.1309 26.4399 44.1262C21.0298 43.9901 17.4831 40.5488 16.2833 39.1779C16.0182 38.8761 16.0272 38.4212 16.2998 38.1257L18.7921 35.2229C18.9389 35.0635 19.1351 34.9815 19.3328 34.9815C19.4931 34.9815 19.6549 35.0357 19.7912 35.1455C20.8965 36.043 23.4548 38.3237 26.8248 38.5141C27.1454 38.5326 27.4539 38.5404 27.746 38.5404C31.0247 38.5404 32.5794 37.4387 32.7951 35.8279C33.0182 34.1645 32.2334 32.7549 27.8868 31.5897C20.1207 29.5086 18.7277 24.8279 19.2055 20.9178C19.7043 16.8344 23.7723 13.5757 28.5128 13.5757ZM28.5128 12.802C23.4263 12.802 19.0123 16.3253 18.4626 20.8219C18.0627 24.0914 18.7322 29.9356 27.6995 32.3387C32.3412 33.5827 32.1615 34.9211 32.0536 35.7211C31.8155 37.5006 29.2528 37.7667 27.7475 37.7667C27.4674 37.7667 27.1738 37.759 26.8668 37.7404C23.9506 37.5764 21.6125 35.6515 20.4876 34.7262L20.2555 34.5359C19.9919 34.3223 19.6653 34.2063 19.3343 34.2063C18.9284 34.2063 18.533 34.3827 18.2514 34.6875L15.7411 37.6104C15.2109 38.1845 15.1989 39.0897 15.7306 39.6962C17.0577 41.2126 20.7557 44.756 26.4234 44.8984C26.6166 44.903 26.8069 44.9045 26.9956 44.9045C34.6868 44.9045 39.0184 40.8289 39.9006 36.7903C40.2855 35.0279 40.4129 32.4098 38.8327 29.9403C37.2974 27.5388 34.507 25.8538 30.5424 24.93C27.5872 24.2415 26.1928 23.05 26.395 21.3913C26.4968 20.5696 27.6786 19.683 30.0361 19.683C33.3957 19.683 35.5255 21.3046 36.7972 22.2717C37.0533 22.4667 37.2765 22.6353 37.4697 22.7668C37.7093 22.9278 37.9879 23.0129 38.274 23.0129C38.6724 23.0129 39.0469 22.852 39.3299 22.5611L41.7309 19.7619C41.9945 19.4942 42.1578 19.0718 42.1443 18.6417C42.1308 18.2177 41.9451 17.8138 41.6336 17.5353C40.0744 16.1365 35.6858 12.8747 28.6267 12.8005L28.5128 12.802Z" fill="black"/>
<path opacity="0.07" d="M34.9707 10.1947C35.4455 10.1947 35.802 10.6466 35.7032 11.1262L34.4465 17.3001L28.3849 17.0154L29.6476 10.809C29.7194 10.4516 30.0265 10.1947 30.38 10.1947H34.9707ZM34.9707 9.42108H30.38C29.6745 9.42108 29.0574 9.93789 28.9136 10.6512L27.651 16.856L27.4698 17.7473L28.3505 17.7891L34.4121 18.0738L35.0486 18.1032L35.1789 17.4595L36.4356 11.2856C36.5299 10.8307 36.4206 10.3588 36.1345 9.99514C35.8499 9.62997 35.4246 9.42108 34.9707 9.42108Z" fill="black"/>
<path opacity="0.07" d="M29.9116 39.5941L28.4617 46.7165C28.3898 47.0739 28.0828 47.3308 27.7293 47.3308H23.1386C22.6623 47.3308 22.3073 46.8789 22.4046 46.3977L23.7901 39.5941H29.9116ZM30.8342 38.8204H29.9116H23.7901H23.182L23.0562 39.4347L21.6707 46.2383C21.5778 46.6979 21.6887 47.1698 21.9748 47.5319C22.2608 47.8955 22.6847 48.1029 23.1386 48.1029H27.7293C28.4348 48.1029 29.0519 47.5861 29.1957 46.8728L30.6455 39.7519L30.8342 38.8204Z" fill="black"/>
</g>
<path d="M30.0373 18.9112C34.297 18.9112 36.683 21.3158 37.8798 22.1204C38.1718 22.3169 38.5568 22.2689 38.8039 22.0151L41.1719 19.2516C41.482 18.9344 41.4745 18.4176 41.145 18.1221C40.2073 17.2803 38.1374 15.6958 34.992 14.6375L35.7065 11.1266C35.8053 10.6469 35.4488 10.1951 34.974 10.1951H30.3833C30.0298 10.1951 29.7227 10.4519 29.6508 10.8094L29.0817 13.6069C28.9229 13.6023 28.7821 13.5775 28.6219 13.576C23.8364 13.5265 19.71 16.8037 19.2082 20.9181C18.7304 24.8282 20.1233 29.5089 27.8894 31.59C32.2361 32.7552 33.0209 34.1648 32.7977 35.8282C32.5626 37.5844 30.7397 38.7341 26.8275 38.5144C23.4574 38.324 20.8992 36.0433 19.7938 35.1458C19.4898 34.8998 19.0614 34.9338 18.7948 35.2232L16.3025 38.126C16.0299 38.4215 16.0209 38.8764 16.286 39.1782C17.2071 40.2304 19.5197 42.4895 22.9856 43.5494L22.406 46.398C22.3086 46.8792 22.6636 47.3311 23.1399 47.3311H27.7307C28.0841 47.3311 28.3912 47.0742 28.4631 46.7168L29.0128 44.0182C35.0175 43.3854 38.4414 39.9673 39.1709 36.622C40.0501 32.5974 38.6571 27.6149 30.3788 25.6854C26.6433 24.8143 25.4226 23.1834 25.6532 21.2956C25.8195 19.9448 27.4161 18.9112 30.0373 18.9112Z" fill="#FAFAFA"/>
</svg>
