<svg width="55" height="55" viewBox="0 0 55 55" fill="none" xmlns="http://www.w3.org/2000/svg">
<rect width="55" height="55" rx="15" fill="#57CF65"/>
<g opacity="0.05">
<path opacity="0.05" d="M28.1464 13.0446C28.1831 13.0446 28.2182 13.0446 28.2549 13.0446C35.2307 13.1164 39.5299 16.2315 41.0286 17.5332C41.3648 17.825 41.3724 18.3353 41.0561 18.6485L38.6407 21.3771C38.4941 21.5238 38.2985 21.6002 38.1014 21.6002C37.9624 21.6002 37.8218 21.562 37.6981 21.481C36.4774 20.6866 34.0436 18.3124 29.6986 18.3124C27.025 18.3124 25.3964 19.3329 25.2268 20.6667C24.9916 22.5306 26.2367 24.1409 30.047 25.001C38.491 26.9061 39.9118 31.8256 39.015 35.7993C38.19 39.4584 34.0085 43.2152 26.5973 43.2152C26.4109 43.2152 26.223 43.2136 26.032 43.209C20.5136 43.0746 16.8959 39.6768 15.6721 38.3232C15.4017 38.0253 15.4109 37.5761 15.6889 37.2843L18.2311 34.4182C18.3809 34.2609 18.581 34.1799 18.7827 34.1799C18.9461 34.1799 19.1111 34.2334 19.2502 34.3418C20.3777 35.2279 22.9871 37.4799 26.4246 37.6678C26.7516 37.6861 27.0663 37.6938 27.3642 37.6938C30.7085 37.6938 32.2943 36.606 32.5143 35.0156C32.742 33.3732 31.9414 31.9814 27.5078 30.831C19.5863 28.7761 18.1655 24.1546 18.6528 20.2939C19.1616 16.2621 23.311 13.0446 28.1464 13.0446ZM28.1464 11.5168C22.5807 11.5168 17.7438 15.2889 17.1373 20.1029C16.6988 23.5802 17.4123 29.7906 27.1243 32.3099C31.2005 33.3671 31.066 34.3388 31.0018 34.8063C30.8277 36.0682 28.1739 36.1675 27.3657 36.1675C27.0923 36.1675 26.8066 36.1599 26.5086 36.1431C23.7785 35.9934 21.6045 34.2624 20.4373 33.3335L20.1959 33.1425C19.7925 32.8263 19.293 32.6536 18.7842 32.6536C18.1609 32.6536 17.5574 32.9134 17.125 33.3671L14.5461 36.2729C13.7578 37.0995 13.7395 38.4699 14.5416 39.3529C15.9593 40.922 19.9193 44.5917 25.9953 44.7399C26.1985 44.7445 26.3986 44.746 26.5973 44.746C34.8641 44.746 39.5391 40.4224 40.5046 36.1385C41.1142 33.4359 40.7002 30.8921 39.3068 28.7853C37.6278 26.2446 34.6242 24.4709 30.3816 23.5145C27.8164 22.9354 26.5911 22.0432 26.7409 20.8622C26.7852 20.5078 27.6988 19.8447 29.6971 19.8447C32.8734 19.8447 34.8396 21.2931 36.1398 22.2525C36.4148 22.4542 36.6546 22.6314 36.8624 22.7659C37.2306 23.0057 37.6584 23.1325 38.0999 23.1325C38.7095 23.1325 39.2824 22.8957 39.7163 22.4649L39.7514 22.4297L39.7835 22.3931L42.1745 19.692C42.6007 19.2459 42.833 18.6424 42.8131 18.0282C42.7917 17.3972 42.5075 16.7984 42.0293 16.3828C40.3748 14.9467 35.7227 11.5963 28.2702 11.5199L28.1464 11.5168Z" fill="black"/>
<path opacity="0.05" d="M34.7352 9.70626C35.2196 9.70626 35.5832 10.1524 35.4823 10.626L34.2005 16.7218L28.0176 16.4407L29.3055 10.3128C29.3789 9.95988 29.6921 9.70626 30.0526 9.70626H34.7352ZM34.7352 8.17849H30.0526C28.9725 8.17849 28.0298 8.94543 27.8098 10.0027L26.5219 16.1275L26.1522 17.886L27.9473 17.967L34.1302 18.2481L35.4273 18.3077L35.6947 17.0365L36.9765 10.9407C37.1201 10.267 36.9521 9.56876 36.5151 9.02946C36.0797 8.48862 35.4304 8.17849 34.7352 8.17849Z" fill="black"/>
<path opacity="0.05" d="M29.5718 38.7341L28.0929 45.7665C28.0195 46.1194 27.7063 46.373 27.3458 46.373H22.6631C22.1773 46.373 21.8152 45.9269 21.9145 45.4518L23.3277 38.7341H29.5718ZM31.454 37.2064H29.5718H23.3277H22.0887L21.8336 38.4194L20.4204 45.1371C20.2783 45.8184 20.4479 46.5166 20.8848 47.0544C21.3218 47.5922 21.9695 47.9008 22.6631 47.9008H27.3458C28.4259 47.9008 29.3686 47.1339 29.5886 46.0766L31.0659 39.0473L31.454 37.2064Z" fill="black"/>
</g>
<g opacity="0.07">
<path opacity="0.07" d="M28.1443 13.044C28.181 13.044 28.2161 13.044 28.2528 13.044C35.2286 13.1158 39.5278 16.2309 41.0266 17.5326C41.3627 17.8244 41.3703 18.3347 41.0541 18.6479L38.6386 21.3765C38.492 21.5231 38.2964 21.5995 38.0993 21.5995C37.9603 21.5995 37.8197 21.5613 37.696 21.4804C36.4753 20.6859 34.0416 18.3117 29.6966 18.3117C27.0229 18.3117 25.3943 19.3323 25.2248 20.666C24.9895 22.5299 26.2346 24.1402 30.0449 25.0003C38.4889 26.9055 39.9097 31.8249 39.0129 35.7987C38.1879 39.4577 34.0064 43.2145 26.5952 43.2145C26.4088 43.2145 26.2209 43.213 26.0299 43.2084C20.5116 43.074 16.8938 39.6762 15.67 38.3226C15.3996 38.0247 15.4088 37.5755 15.6868 37.2837L18.2291 34.4176C18.3788 34.2602 18.5789 34.1792 18.7806 34.1792C18.9441 34.1792 19.1091 34.2327 19.2481 34.3412C20.3756 35.2273 22.985 37.4792 26.4225 37.6672C26.7495 37.6855 27.0642 37.6931 27.3621 37.6931C30.7064 37.6931 32.2922 36.6053 32.5122 35.0149C32.7399 33.3726 31.9393 31.9808 27.5057 30.8303C19.5842 28.7755 18.1634 24.154 18.6507 20.2933C19.1595 16.2615 23.3089 13.044 28.1443 13.044ZM28.1443 12.2801C22.956 12.2801 18.4536 15.7588 17.8929 20.1985C17.485 23.4267 18.1679 29.1972 27.3147 31.5698C32.0493 32.7981 31.866 34.1197 31.756 34.9095C31.5131 36.6665 28.8991 36.9292 27.3636 36.9292C27.0779 36.9292 26.7785 36.9216 26.4653 36.9033C23.4907 36.7413 21.1059 34.8408 19.9585 33.9272L19.7217 33.7392C19.4528 33.5284 19.1197 33.4138 18.7821 33.4138C18.3681 33.4138 17.9648 33.588 17.6775 33.889L15.117 36.7749C14.5761 37.3417 14.5639 38.2355 15.1063 38.8344C16.4599 40.3316 20.232 43.8302 26.0131 43.9708C26.2102 43.9754 26.4042 43.9769 26.5967 43.9769C34.4418 43.9769 38.8602 39.9527 39.76 35.9652C40.1527 34.2251 40.2825 31.6401 38.6707 29.2017C37.1047 26.8306 34.2585 25.1669 30.2145 24.2548C27.2002 23.5749 25.7778 22.3985 25.9841 20.7608C26.0879 19.9495 27.2934 19.0741 29.6981 19.0741C33.1249 19.0741 35.2974 20.6752 36.5945 21.6301C36.8557 21.8226 37.0834 21.9891 37.2804 22.119C37.5249 22.2779 37.8091 22.3619 38.1009 22.3619C38.5072 22.3619 38.8892 22.203 39.1779 21.9158L41.627 19.152C41.8959 18.8877 42.0624 18.4706 42.0486 18.0459C42.0349 17.6273 41.8454 17.2285 41.5277 16.9535C39.9372 15.5724 35.4609 12.3519 28.2604 12.2785L28.1443 12.2801Z" fill="black"/>
<path opacity="0.07" d="M34.7315 9.70575C35.2158 9.70575 35.5794 10.1519 35.4786 10.6255L34.1968 16.7213L28.0139 16.4402L29.3018 10.3123C29.3751 9.95936 29.6883 9.70575 30.0489 9.70575H34.7315ZM34.7315 8.94186H30.0489C29.3293 8.94186 28.6998 9.45213 28.5532 10.1564L27.2652 16.2828L27.0804 17.1628L27.9787 17.2041L34.1616 17.4852L34.8109 17.5142L34.9439 16.8787L36.2257 10.7828C36.3219 10.3337 36.2104 9.86769 35.9186 9.50866C35.6283 9.14811 35.1944 8.94186 34.7315 8.94186Z" fill="black"/>
<path opacity="0.07" d="M29.5711 38.7336L28.0922 45.766C28.0189 46.1189 27.7057 46.3725 27.3451 46.3725H22.6625C22.1766 46.3725 21.8146 45.9264 21.9139 45.4513L23.3271 38.7336H29.5711ZM30.5122 37.9697H29.5711H23.3271H22.7068L22.5784 38.5763L21.1652 45.2939C21.0705 45.7476 21.1836 46.2136 21.4754 46.5711C21.7672 46.9301 22.1996 47.1349 22.6625 47.1349H27.3451C28.0647 47.1349 28.6941 46.6246 28.8408 45.9203L30.3197 38.8894L30.5122 37.9697Z" fill="black"/>
</g>
<path d="M29.6993 18.312C34.0443 18.312 36.478 20.6861 37.6987 21.4806C37.9966 21.6746 38.3893 21.6272 38.6414 21.3767L41.0568 18.6481C41.373 18.3349 41.3654 17.8246 41.0293 17.5328C40.0729 16.7017 37.9615 15.1372 34.7532 14.0922L35.4819 10.6257C35.5828 10.1521 35.2191 9.70598 34.7348 9.70598H30.0522C29.6916 9.70598 29.3784 9.95959 29.3051 10.3125L28.7246 13.0747C28.5626 13.0701 28.419 13.0457 28.2555 13.0442C23.3743 12.9953 19.1652 16.2311 18.6534 20.2935C18.1661 24.1542 19.5869 28.7757 27.5084 30.8306C31.9421 31.981 32.7426 33.3728 32.515 35.0151C32.2751 36.7492 30.4158 37.8843 26.4253 37.6674C22.9877 37.4794 20.3783 35.2275 19.2508 34.3414C18.9407 34.0985 18.5037 34.1321 18.2318 34.4178L15.6896 37.2839C15.4115 37.5757 15.4023 38.0249 15.6727 38.3228C16.6123 39.3617 18.9712 41.5922 22.5065 42.6388L21.9152 45.4514C21.8159 45.9265 22.178 46.3726 22.6639 46.3726H27.3465C27.7071 46.3726 28.0202 46.119 28.0936 45.7661L28.6543 43.1017C34.7791 42.4768 38.2716 39.102 39.0157 35.7989C39.9125 31.8251 38.4916 26.9057 30.0476 25.0006C26.2373 24.1404 24.9922 22.5301 25.2275 20.6663C25.3971 19.3325 27.0257 18.312 29.6993 18.312Z" fill="#FAFAFA"/>
</svg>
