<svg width="55" height="55" viewBox="0 0 55 55" fill="none" xmlns="http://www.w3.org/2000/svg">
<rect width="55" height="55" rx="15" fill="#F1EFE3"/>
<path d="M19.2548 24.699C19.744 26.3212 20.3363 27.8429 20.9801 29.3106C22.0873 31.9395 22.8341 33.33 23.8664 35.0553C25.1282 37.1154 26.521 39.461 28.8128 40.9803C30.4866 42.0875 32.5232 42.654 34.4802 42.654C37.2379 42.654 39.6069 41.4438 41.1285 40.0251C42.6221 38.6346 44.5557 35.9542 44.5557 30.7246C44.5557 28.922 45.3539 27.3747 45.9462 26.1387C45.9462 26.1129 45.972 26.0614 46.0235 25.9584C46.2552 25.4434 46.5385 24.7739 46.5385 24.1044C46.5385 23.6151 46.4097 23.0486 46.075 22.5593C45.5599 21.6838 44.6329 21.3748 43.7808 21.3748C41.798 21.3748 40.4309 22.7654 39.7357 24.184L39.5039 24.6475C39.2207 24.2355 38.9374 23.7977 38.7057 23.4115C37.9846 22.1497 37.5726 21.2999 37.2121 20.2161C36.9289 19.3663 36.6971 18.3878 36.5426 17.5872C36.1049 15.0613 35.3839 14.2373 34.197 13.9283C33.3215 13.6965 32.2915 13.8768 31.5424 14.366C31.0297 13.2073 30.1542 12.6923 28.9931 12.6923C27.345 12.6923 25.8492 13.7738 25.8492 15.6044C25.8492 15.8362 25.8749 16.0679 25.9007 16.3512C25.6947 16.2997 25.4629 16.2739 25.2312 16.2739C23.4544 16.2739 22.1388 17.5099 22.1388 19.186C22.1388 19.5723 22.1903 20.0101 22.3191 20.5251C22.1646 20.4993 22.0101 20.4993 21.8556 20.4993C20.9801 20.5508 20.1818 20.8856 19.6129 21.5808C19.0488 22.2503 18.817 23.2804 19.2548 24.699Z" fill="#1F1F1A"/>
<path d="M20.7229 24.2355C20.4912 23.4887 20.5169 22.9223 20.8002 22.5618C21.0834 22.2271 21.4697 22.0726 21.9332 22.0468C22.7315 22.0211 23.0405 22.5876 23.504 24.0552C23.7873 24.9823 24.3538 26.3236 24.6886 27.0704C25.1263 27.9717 25.7443 29.1819 26.0276 29.5963C26.2593 29.9568 26.4653 30.0598 26.6971 30.0598C27.1091 30.0598 27.4181 29.828 27.4181 29.416C27.4181 29.1843 27.1864 28.798 27.0576 28.5663C26.8258 28.1285 26.3366 27.253 26.0018 26.5062C25.6413 25.6822 25.2293 24.6522 24.8946 23.7228C24.6886 23.1821 24.4568 22.4097 24.2251 21.6372C23.8646 20.4527 23.6842 19.7316 23.6842 19.1885C23.6842 18.3645 24.3023 17.8238 25.2293 17.8238C25.8988 17.8238 26.3366 18.1585 26.6198 19.3688C26.8516 20.4761 27.2636 22.2809 27.8559 23.6971C28.2421 24.6241 28.8086 25.8625 29.1434 26.4805C29.3494 26.841 29.5811 27.15 29.5811 27.2787C29.5811 27.459 29.2464 27.7422 28.9631 28.1285C28.7829 28.3602 28.7056 28.5148 28.7056 28.695C28.7056 28.8495 28.8086 29.004 28.9631 29.21C29.1176 29.416 29.2721 29.622 29.4524 29.622C29.5811 29.622 29.6584 29.5705 29.7356 29.4675C30.5339 28.4633 31.4094 27.768 32.416 27.1991C33.6005 26.5296 34.8132 26.1949 35.7659 25.9889C36.2294 25.8859 36.3582 25.7829 36.3582 25.5254C36.3582 25.2164 36.1264 25.0361 35.8174 25.0104C35.5857 24.9846 35.3797 25.0104 35.0192 25.0361C34.7617 25.0619 34.6329 24.9331 34.4784 24.5983C34.0149 23.6198 33.1136 21.9696 32.5729 19.858C32.3411 18.9568 32.1351 18.004 32.0064 16.7657C31.9291 16.1991 32.0321 15.9931 32.3154 15.7356C32.6759 15.4266 33.3196 15.2979 33.8089 15.4266C34.4012 15.5811 34.7102 16.0446 35.0192 17.8495C35.1737 18.6993 35.4312 19.7808 35.7402 20.7102C36.1264 21.8947 36.6157 22.8755 37.3624 24.1887C37.7745 24.9097 38.2895 25.6565 38.8302 26.3798C38.7272 26.6888 38.547 26.8948 37.9547 27.3841C37.3624 27.8733 36.7702 28.3883 36.2294 29.3411C35.8432 30.0364 35.6629 30.8089 35.6629 31.3239C35.6629 31.8131 35.7659 31.9161 36.0749 31.9161C36.6157 31.9161 37.0534 31.8131 37.0792 31.5814C37.2079 30.6544 37.3624 30.0621 37.8775 29.3645C38.1865 28.9783 38.7272 28.489 39.165 28.1027C39.989 27.4332 40.2722 27.047 40.5555 26.0942C40.6843 25.6565 40.8388 25.2444 41.0448 24.8582C41.534 23.9569 42.4095 22.927 43.7766 22.927C44.2144 22.927 44.5749 23.0557 44.8067 23.4162C44.9354 23.6222 44.9869 23.9054 44.9869 24.1114C44.9869 24.5749 44.6522 25.2187 44.4977 25.5277C43.9311 26.738 43.0041 28.5943 43.0041 30.7316C43.0041 35.3948 41.3561 37.7147 40.0662 38.8992C38.8045 40.0837 36.8193 41.1161 34.4761 41.1161C32.8023 41.1161 31.0747 40.6268 29.6584 39.6998C27.6756 38.3865 26.4373 36.3241 25.1755 34.2641C24.1712 32.5903 23.4759 31.2747 22.392 28.7254C21.781 27.2483 21.2122 25.8063 20.7229 24.2355Z" fill="#FFE450"/>
<path d="M27.3452 15.6043C27.3452 14.6258 28.2464 14.2395 28.9932 14.2395C29.7914 14.2395 30.0747 14.6258 30.2807 15.4498C30.461 16.1193 30.5382 16.7373 30.6155 17.4583C30.7185 18.1793 31.0787 19.8297 31.1817 20.2417C31.568 21.658 32.3405 23.334 33.2675 25.3425C32.7268 25.5228 32.0057 25.8318 31.5165 26.0893C30.8985 26.424 30.7697 26.424 30.5122 25.9348C29.9715 24.9305 29.5852 24.1837 29.2504 23.3059C28.9672 22.585 28.6839 21.761 28.4522 20.8059C28.0659 19.1836 28.0147 18.7201 27.7057 17.971C27.5254 17.2008 27.3452 16.248 27.3452 15.6043Z" fill="#FFE450"/>
<path d="M18.1221 32.8524C17.5766 33.1895 14.6856 34.7041 14.0324 34.9453C13.5666 35.1185 13.061 35.0763 12.7637 34.1962C12.3985 33.1076 12.9111 32.8501 13.6415 32.5669C14.2876 32.3164 16.968 31.3472 17.5907 31.1787C18.0284 31.0616 18.3328 31.2091 18.5435 31.7358C18.7752 32.314 18.616 32.5458 18.1221 32.8524Z" fill="#1F1F1A"/>
<path d="M15.7388 26.7171C14.9616 26.7382 11.7334 26.6001 10.996 26.5275C10.3546 26.4643 10.0948 26.181 10.165 25.2517C10.2399 24.2544 10.6285 24.1936 11.2582 24.2544C11.9886 24.3247 15.3712 24.8748 15.9097 25.041C16.4668 25.2142 16.5441 25.4671 16.4762 25.954C16.3896 26.586 16.104 26.7054 15.7388 26.7171Z" fill="#1F1F1A"/>
<path d="M16.1389 20.1811C15.2493 19.9002 12.6088 18.3013 11.9205 17.8893C11.2978 17.5148 11.2182 17.1777 11.6513 16.356C12.0352 15.6303 12.4613 15.5039 13.0933 15.8316C13.826 16.2132 16.4128 18.2264 16.9067 18.6244C17.3843 19.0083 17.3187 19.2073 17.0683 19.7012C16.8178 20.1951 16.5837 20.3215 16.1389 20.1811Z" fill="#1F1F1A"/>
</svg>
