<svg width="55" height="55" viewBox="0 0 55 55" fill="none" xmlns="http://www.w3.org/2000/svg">
<rect width="54.3049" height="55" rx="15" fill="#2E86FF"/>
<path d="M41.6234 17.5244C41.6234 17.5244 37.629 14.3805 32.9114 14.0195L32.4863 14.8747C36.7517 15.9244 38.7084 17.4289 40.7522 19.2769C37.2282 17.4675 33.7486 15.772 27.6842 15.772C21.6198 15.772 18.1402 17.4675 14.6162 19.2769C16.66 17.4289 18.9879 15.7588 22.8821 14.8747L22.457 14.0195C17.5077 14.4901 13.745 17.5244 13.745 17.5244C13.745 17.5244 9.28356 24.0304 8.51778 36.8014C13.0149 42.0176 19.8434 42.0587 19.8434 42.0587L21.2713 40.1442C18.8476 39.2969 16.1103 37.7836 13.745 35.0489C16.5659 37.1957 20.8235 39.4301 27.6842 39.4301C34.5449 39.4301 38.8025 37.1957 41.6234 35.0489C39.2581 37.7836 36.5208 39.2969 34.0971 40.1442L35.525 42.0587C35.525 42.0587 42.3535 42.0176 46.8506 36.8014C46.0849 24.0304 41.6234 17.5244 41.6234 17.5244ZM22.0214 33.2965C20.3374 33.2965 18.9722 31.7272 18.9722 29.7916C18.9722 27.856 20.3374 26.2867 22.0214 26.2867C23.7054 26.2867 25.0706 27.856 25.0706 29.7916C25.0706 31.7272 23.7054 33.2965 22.0214 33.2965ZM33.347 33.2965C31.663 33.2965 30.2978 31.7272 30.2978 29.7916C30.2978 27.856 31.663 26.2867 33.347 26.2867C35.0311 26.2867 36.3962 27.856 36.3962 29.7916C36.3962 31.7272 35.0311 33.2965 33.347 33.2965Z" fill="white"/>
</svg>
