<svg width="52" height="57" viewBox="0 0 52 57" fill="none" xmlns="http://www.w3.org/2000/svg">
<rect y="0.971191" width="51.9011" height="55.704" rx="15" fill="url(#paint0_linear_93002_392)"/>
<path d="M41.1147 18.4573C40.976 18.4445 40.8362 18.4445 40.6975 18.4573H12.2028C12.0202 18.4598 11.8387 18.4843 11.6634 18.5301L26.3687 31.629L41.1147 18.4573Z" fill="white"/>
<path fill-rule="evenodd" clip-rule="evenodd" d="M42.6215 19.723L27.8042 32.922C27.4229 33.261 26.907 33.4514 26.3693 33.4514C25.8316 33.4514 25.3157 33.261 24.9344 32.922L10.2494 19.8231C10.2043 19.9715 10.1803 20.1244 10.1782 20.2782V38.4837C10.1782 38.9666 10.3926 39.4296 10.7743 39.7711C11.156 40.1125 11.6737 40.3043 12.2135 40.3043H40.7082C41.248 40.3043 41.7657 40.1125 42.1474 39.7711C42.5291 39.4296 42.7436 38.9666 42.7436 38.4837V20.2782C42.7355 20.0886 42.6943 19.9012 42.6215 19.723ZM13.6077 38.4837H12.1932V37.182L19.5916 30.619L21.0265 31.9025L13.6077 38.4837ZM40.6879 38.4837H39.2631L31.8443 31.9025L33.2793 30.619L40.6777 37.182L40.6879 38.4837Z" fill="white"/>
<defs>
<linearGradient id="paint0_linear_93002_392" x1="25.9505" y1="0.971191" x2="25.9505" y2="56.6752" gradientUnits="userSpaceOnUse">
<stop stop-color="#0B6AB1"/>
<stop offset="1" stop-color="#31BBEF"/>
</linearGradient>
</defs>
</svg>
