<svg width="55" height="57" viewBox="0 0 55 57" fill="none" xmlns="http://www.w3.org/2000/svg">
<rect y="0.971191" width="55" height="55.704" rx="15" fill="#42D755"/>
<path d="M30.187 17.3392H16.2819C13.8844 17.3392 11.8466 19.4031 11.8466 21.8312V33.3648C11.8466 35.7929 13.8844 37.8568 16.2819 37.8568H30.187C32.5844 37.8568 34.6222 35.7929 34.6222 33.3648V21.8312C34.6222 19.2817 32.5844 17.3392 30.187 17.3392Z" fill="white"/>
<path d="M41.095 18.3102L36.42 22.438C36.1802 22.6808 35.9405 23.045 35.9405 23.4093V31.5435C35.9405 31.5603 35.9408 31.5771 35.9413 31.5939C35.9636 32.313 36.6872 32.7576 37.2197 33.2416L41.095 36.7639C42.1738 37.7352 43.9719 37.0067 43.9719 35.4285V19.6457C43.9719 18.0674 42.2937 17.2175 41.095 18.3102Z" fill="white"/>
</svg>
