<svg width="55" height="57" viewBox="0 0 55 57" fill="none" xmlns="http://www.w3.org/2000/svg">
<path d="M42.7964 56.4426L12.257 56.472C5.53833 56.4782 0.0366525 50.9169 0.0290176 44.1122L5.09064e-06 13.1819C-0.0061028 6.37723 5.48489 0.805127 12.2036 0.797394L42.743 0.768011C49.4617 0.761824 54.9633 6.3231 54.971 13.1278L55 44.0581C55.0076 50.8643 49.5151 56.4364 42.7964 56.4426Z" fill="url(#paint0_radial_93002_354)"/>
<path d="M42.7964 56.4426L12.257 56.472C5.53833 56.4782 0.0366525 50.9169 0.0290176 44.1122L5.09064e-06 13.1819C-0.0061028 6.37723 5.48489 0.805127 12.2036 0.797394L42.743 0.768011C49.4617 0.761824 54.9633 6.3231 54.971 13.1278L55 44.0581C55.0076 50.8643 49.5151 56.4364 42.7964 56.4426Z" fill="url(#paint1_radial_93002_354)"/>
<path d="M27.4995 39.4468C21.6069 39.4468 16.8107 34.5908 16.8107 28.6212C16.8107 22.6517 21.6069 17.7956 27.4995 17.7956C33.3921 17.7956 38.1883 22.6517 38.1883 28.6212C38.1883 34.5908 33.3921 39.4468 27.4995 39.4468ZM27.4995 20.8886C23.2896 20.8886 19.8646 24.3575 19.8646 28.6212C19.8646 32.885 23.2896 36.3538 27.4995 36.3538C31.7094 36.3538 35.1344 32.885 35.1344 28.6212C35.1344 24.3575 31.7094 20.8886 27.4995 20.8886Z" fill="white"/>
<path d="M38.9511 19.3419C40.216 19.3419 41.2415 18.3033 41.2415 17.0222C41.2415 15.741 40.216 14.7024 38.9511 14.7024C37.6861 14.7024 36.6606 15.741 36.6606 17.0222C36.6606 18.3033 37.6861 19.3419 38.9511 19.3419Z" fill="white"/>
<path d="M36.6626 48.7255H18.3389C12.4463 48.7255 7.6501 43.8694 7.6501 37.8999V19.3417C7.6501 13.3721 12.4463 8.51605 18.3389 8.51605H36.6626C42.5551 8.51605 47.3514 13.3721 47.3514 19.3417V37.8999C47.3514 43.8694 42.5551 48.7255 36.6626 48.7255ZM18.3389 11.6091C14.129 11.6091 10.704 15.0779 10.704 19.3417V37.8999C10.704 42.1636 14.129 45.6325 18.3389 45.6325H36.6626C40.8724 45.6325 44.2974 42.1636 44.2974 37.8999V19.3417C44.2974 15.0779 40.8724 11.6091 36.6626 11.6091H18.3389Z" fill="white"/>
<defs>
<radialGradient id="paint0_radial_93002_354" cx="0" cy="0" r="1" gradientUnits="userSpaceOnUse" gradientTransform="translate(20.4462 56.5122) scale(68.5595 69.4371)">
<stop stop-color="#FFDD55"/>
<stop offset="0.328" stop-color="#FF543F"/>
<stop offset="0.348" stop-color="#FC5245"/>
<stop offset="0.504" stop-color="#E64771"/>
<stop offset="0.643" stop-color="#D53E91"/>
<stop offset="0.761" stop-color="#CC39A4"/>
<stop offset="0.841" stop-color="#C837AB"/>
</radialGradient>
<radialGradient id="paint1_radial_93002_354" cx="0" cy="0" r="1" gradientUnits="userSpaceOnUse" gradientTransform="translate(8.85033 0.0725455) scale(45.5236 30.7206)">
<stop stop-color="#4168C9"/>
<stop offset="0.999" stop-color="#4168C9" stop-opacity="0"/>
</radialGradient>
</defs>
</svg>
