<svg width="56" height="55" viewBox="0 0 56 55" fill="none" xmlns="http://www.w3.org/2000/svg">
<rect x="0.931625" width="55" height="55" rx="15" fill="url(#paint0_linear_93002_500)"/>
<path d="M24.8013 34.7183H26.6692V41.4534C26.6692 42.3794 25.8725 43.1371 24.8987 43.1371H21.3576C20.3838 43.1371 19.5871 42.3794 19.5871 41.4534V34.7183H12.4075C11.0619 34.7183 10.2121 33.3377 10.8583 32.218L21.5789 13.8061C22.2517 12.6527 24.0046 12.6527 24.6774 13.8061L28.9709 22.006L23.2521 32.218C22.6058 33.3377 23.4557 34.7183 24.8013 34.7183Z" fill="white"/>
<path d="M45.5423 34.7183H38.3972V41.4534C38.3972 42.3794 37.6043 43.1371 36.6352 43.1371H33.1112C32.142 43.1371 31.3491 42.3794 31.3491 41.4534V34.7183H33.2081C34.5472 34.7183 35.393 33.3377 34.7498 32.218L28.9704 22.006L33.3314 13.8061C34.001 12.6527 35.7454 12.6527 36.415 13.8061L47.0841 32.218C47.7272 33.3377 46.8814 34.7183 45.5423 34.7183Z" fill="white"/>
<defs>
<linearGradient id="paint0_linear_93002_500" x1="28.4316" y1="0" x2="28.4316" y2="55" gradientUnits="userSpaceOnUse">
<stop stop-color="#1DE9B6"/>
<stop offset="1" stop-color="#26A69A"/>
</linearGradient>
</defs>
</svg>
