<svg width="53" height="57" viewBox="0 0 53 57" fill="none" xmlns="http://www.w3.org/2000/svg">
<rect x="0.802246" y="0.768005" width="51.9011" height="55.704" rx="15" fill="#0288D1"/>
<path d="M9.96136 25.0338C9.96136 23.0433 11.575 21.4296 13.5656 21.4296V21.4296C15.5562 21.4296 17.1698 23.0433 17.1698 25.0338V44.13C17.1698 46.1206 15.5562 47.7343 13.5656 47.7343V47.7343C11.575 47.7343 9.96136 46.1206 9.96136 44.13V25.0338ZM13.544 18.3349H13.5036C11.3526 18.3349 9.96136 16.6143 9.96136 14.4651C9.96136 12.2694 11.3958 10.5983 13.5858 10.5983C15.7786 10.5983 17.1295 12.2694 17.1698 14.4651C17.1698 16.6128 15.7786 18.3349 13.544 18.3349ZM44.5617 44.1299C44.5619 46.1205 42.9483 47.7343 40.9577 47.7343V47.7343C38.9672 47.7343 37.3536 46.1207 37.3536 44.1302V33.6551C37.3536 30.254 35.5875 27.933 32.7517 27.933C30.5877 27.933 29.4171 29.4989 28.849 31.0122C28.6414 31.5538 28.7034 33.0516 28.7034 33.8083V44.13C28.7034 46.1206 27.0897 47.7343 25.0992 47.7343V47.7343C23.1086 47.7343 21.4949 46.1206 21.4949 44.13V25.0338C21.4949 23.0433 23.1086 21.4296 25.0992 21.4296H27.8235C28.3095 21.4296 28.7034 21.8235 28.7034 22.3095V22.3095C28.7034 23.2013 29.9947 23.5934 30.6778 23.0202C31.7554 22.1161 33.2697 21.4296 35.5342 21.4296C40.6926 21.4296 44.5606 24.9111 44.5606 32.6849L44.5617 44.1299Z" fill="white"/>
</svg>
