<svg width="55" height="55" viewBox="0 0 55 55" fill="none" xmlns="http://www.w3.org/2000/svg">
<rect width="55" height="55" rx="15" fill="black"/>
<path d="M30.9409 28.0392C30.9409 35.1856 25.2225 40.9804 18.1651 40.9804C16.49 40.9826 14.8308 40.6497 13.2823 40.0006C11.7338 39.3514 10.3264 38.3988 9.14029 37.1971C7.95421 35.9954 7.01274 34.5682 6.36964 32.9969C5.72653 31.4255 5.39438 29.7409 5.39215 28.0392C5.39215 20.8899 11.1105 15.098 18.1651 15.098C19.8405 15.0954 21.4999 15.428 23.0487 16.077C24.5976 16.726 26.0053 17.6785 27.1917 18.8802C28.3781 20.082 29.3198 21.5094 29.9631 23.0809C30.6064 24.6524 30.9386 26.3372 30.9409 28.0392ZM44.9537 28.0392C44.9537 34.7686 42.0945 40.2212 38.5673 40.2212C35.04 40.2212 32.1808 34.7657 32.1808 28.0392C32.1808 21.3098 35.04 15.8573 38.5673 15.8573C42.0945 15.8573 44.9537 21.3127 44.9537 28.0392ZM50.6863 28.0392C50.6863 34.0669 49.6813 38.9529 48.4385 38.9529C47.1986 38.9529 46.1937 34.064 46.1937 28.0392C46.1937 22.0115 47.1986 17.1255 48.4414 17.1255C49.6813 17.1255 50.6863 22.0115 50.6863 28.0392Z" fill="white"/>
</svg>
