<svg width="55" height="57" viewBox="0 0 55 57" fill="none" xmlns="http://www.w3.org/2000/svg">
<rect y="0.768005" width="55" height="55.704" rx="15" fill="url(#paint0_linear_93002_625)"/>
<g clip-path="url(#clip0_93002_625)">
<path d="M27.5 11C18.3879 11 11 18.3879 11 27.5C11 36.6121 18.3865 44 27.5 44C36.6121 44 44 36.6121 44 27.5C44 18.3865 36.6121 11 27.5 11ZM27.4835 12.727C35.6537 12.7174 42.2716 19.3339 42.2716 27.4959C42.2716 35.6579 35.6537 42.2758 27.4931 42.2744C19.3311 42.2744 12.7133 35.6579 12.7133 27.4959C12.7133 19.3462 19.3119 12.7353 27.4835 12.727ZM27.0435 19.0066C25.4147 19.0056 23.8512 19.6475 22.693 20.7928C22.1194 21.3494 21.6635 22.0156 21.3524 22.7518C21.0414 23.4881 20.8814 24.2794 20.8821 25.0786V26.4248L20.1176 27.8039V29.7894C20.1191 30.6771 20.2981 31.5555 20.644 32.373C20.9899 33.1905 21.4958 33.9305 22.132 34.5496C23.4275 35.8208 25.1707 36.5319 26.9858 36.5296H28.2178C30.0273 36.5296 31.7653 35.8188 33.0578 34.5496C33.6949 33.9311 34.2017 33.1912 34.5481 32.3737C34.8946 31.5561 35.0737 30.6773 35.0749 29.7894V27.8025L34.3186 26.4234V25.0759C34.3177 24.2767 34.1566 23.4858 33.8448 22.7499C33.5331 22.014 33.0771 21.3481 32.5036 20.7914C31.3447 19.6454 29.7802 19.0035 28.1504 19.0052L27.0435 19.0066ZM27.0435 21.7154H28.1504C29.0521 21.7182 29.9165 22.0758 30.5566 22.7109C31.196 23.3324 31.5576 24.1863 31.5604 25.0786L31.5645 26.4674H23.6307V25.0786C23.6335 24.1863 23.9951 23.3324 24.6345 22.7109C25.275 22.0754 26.1398 21.7173 27.0421 21.714L27.0435 21.7154ZM27.6815 28.8599H27.7227C29.832 28.8283 30.404 31.7529 28.4364 32.5174H28.3181V34.1069C28.3188 34.2235 28.2899 34.3384 28.2341 34.4408C28.1783 34.5433 28.0975 34.6299 27.9991 34.6926H27.2965C27.1962 34.6285 27.1134 34.5403 27.0558 34.4361C26.9981 34.3319 26.9675 34.215 26.9665 34.0959V32.5187C25.0003 31.7542 25.5709 28.8283 27.6815 28.8599Z" fill="white"/>
</g>
<defs>
<linearGradient id="paint0_linear_93002_625" x1="27.5" y1="0.768005" x2="27.5" y2="56.472" gradientUnits="userSpaceOnUse">
<stop stop-color="#01ABF0"/>
<stop offset="1" stop-color="#0182F0"/>
</linearGradient>
<clipPath id="clip0_93002_625">
<rect width="33" height="33" fill="white" transform="translate(11 11)"/>
</clipPath>
</defs>
</svg>
