<svg width="54" height="57" viewBox="0 0 54 57" fill="none" xmlns="http://www.w3.org/2000/svg">
<rect y="0.364807" width="53.9208" height="55.704" rx="15" fill="url(#paint0_linear_93002_455)"/>
<path d="M23.5495 19.8344L23.5535 19.8361C23.6359 19.4731 23.9357 19.2061 24.3108 19.2061H34.9949C35.0084 19.2061 35.0219 19.2003 35.0353 19.2011C34.8077 15.2858 31.6284 13.4711 28.8233 13.4711H18.1393C17.7634 13.4711 17.4636 13.7455 17.3819 14.1077L17.3779 14.106L12.7076 36.2578L12.7179 36.2586C12.7068 36.3111 12.687 36.361 12.687 36.4176C12.687 36.8706 13.0415 37.2295 13.4801 37.2295H19.8808L23.5495 19.8344Z" fill="white"/>
<path d="M35.036 19.2014C35.078 19.919 35.032 20.6998 34.8544 21.5625C33.8385 26.4741 30.1659 29.0303 25.6272 29.0303C25.6272 29.0303 22.8753 29.0303 22.2067 29.0303C21.7936 29.0303 21.5985 29.281 21.5089 29.4727L20.1289 36.0671L19.8871 37.2379H19.8823L18.8807 41.9865L18.891 41.9873C18.8799 42.0397 18.86 42.0897 18.86 42.1462C18.86 42.5993 19.2145 42.9655 19.6531 42.9655H25.4686L25.4789 42.9573C25.8532 42.9516 26.1506 42.6755 26.2283 42.3117L26.2426 42.2994L27.6796 35.4043C27.6796 35.4043 27.7795 34.7464 28.4489 34.7464C29.1182 34.7464 31.7623 34.7464 31.7623 34.7464C36.3009 34.7464 40.0109 32.2017 41.0276 27.2893C42.1711 21.751 38.347 19.2218 35.036 19.2014Z" fill="#EDEDED"/>
<path d="M24.3093 19.2057C23.9334 19.2057 23.6336 19.4728 23.5519 19.8358L23.5479 19.8341L21.5058 29.473C21.5954 29.2813 21.7905 29.0306 22.2037 29.0306C22.8731 29.0306 25.5623 29.0306 25.5623 29.0306C30.101 29.0306 33.8355 26.4744 34.8514 21.5628C35.0298 20.7001 35.075 19.9193 35.033 19.2016C35.0203 19.2 35.006 19.2057 34.9933 19.2057H24.3093Z" fill="white"/>
<defs>
<linearGradient id="paint0_linear_93002_455" x1="3.70045" y1="6.91822" x2="55.4632" y2="54.3868" gradientUnits="userSpaceOnUse">
<stop offset="0.338379" stop-color="#0D62AB"/>
<stop offset="0.813783" stop-color="#199BE2"/>
</linearGradient>
</defs>
</svg>
