<svg width="55" height="55" viewBox="0 0 55 55" fill="none" xmlns="http://www.w3.org/2000/svg">
<rect width="55" height="55" rx="15" fill="url(#paint0_linear_2_249)"/>
<path d="M24.0209 19.2236L24.0249 19.2252C24.109 18.8669 24.4148 18.6032 24.7974 18.6032H35.6953C35.7091 18.6032 35.7228 18.5975 35.7366 18.5983C35.5044 14.7324 32.2614 12.9407 29.4002 12.9407H18.5023C18.1189 12.9407 17.8131 13.2116 17.7298 13.5692L17.7258 13.5676L12.962 35.4394L12.9725 35.4402C12.9612 35.492 12.9409 35.5413 12.9409 35.5972C12.9409 36.0445 13.3025 36.3988 13.7499 36.3988H20.2787L24.0209 19.2236Z" fill="white"/>
<path d="M35.7373 18.5985C35.7801 19.3071 35.7332 20.078 35.552 20.9298C34.5158 25.7793 30.7696 28.3032 26.1401 28.3032C26.1401 28.3032 23.3331 28.3032 22.6512 28.3032C22.2297 28.3032 22.0308 28.5507 21.9393 28.74L20.5318 35.2511L20.2851 36.4071H20.2802L19.2586 41.0956L19.2691 41.0964C19.2577 41.1482 19.2375 41.1975 19.2375 41.2534C19.2375 41.7007 19.5991 42.0623 20.0464 42.0623H25.9783L25.9888 42.0542C26.3707 42.0485 26.674 41.7759 26.7533 41.4168L26.7678 41.4046L28.2336 34.5967C28.2336 34.5967 28.3355 33.9471 29.0183 33.9471C29.701 33.9471 32.398 33.9471 32.398 33.9471C37.0275 33.9471 40.8117 31.4346 41.8487 26.5842C43.0152 21.1159 39.1145 18.6187 35.7373 18.5985Z" fill="#EDEDED"/>
<path d="M24.7958 18.6028C24.4124 18.6028 24.1066 18.8665 24.0233 19.2249L24.0193 19.2233L21.9363 28.7403C22.0277 28.551 22.2267 28.3035 22.6481 28.3035C23.3309 28.3035 26.074 28.3035 26.074 28.3035C30.7035 28.3035 34.5127 25.7796 35.5489 20.9301C35.731 20.0783 35.7771 19.3074 35.7342 18.5988C35.7212 18.5972 35.7067 18.6028 35.6937 18.6028H24.7958Z" fill="white"/>
<defs>
<linearGradient id="paint0_linear_2_249" x1="3.77451" y1="6.47059" x2="55" y2="55" gradientUnits="userSpaceOnUse">
<stop offset="0.338379" stop-color="#0D62AB"/>
<stop offset="0.813783" stop-color="#199BE2"/>
</linearGradient>
</defs>
</svg>
