<svg width="55" height="57" viewBox="0 0 55 57" fill="none" xmlns="http://www.w3.org/2000/svg">
<rect y="0.768005" width="55" height="55.704" rx="15" fill="#CB1F27"/>
<path d="M28.9161 10.5981C21.4234 10.5981 14.0196 15.5374 14.0196 23.5316C14.0196 28.6153 16.9113 31.5038 18.6638 31.5038C19.387 31.5038 19.8029 29.5107 19.8029 28.9481C19.8029 28.2768 18.0726 26.8464 18.0726 24.0515C18.0726 18.2457 22.5415 14.129 28.3249 14.129C33.2974 14.129 36.9777 16.9239 36.9777 22.0585C36.9777 25.8932 35.4226 33.0855 30.3835 33.0855C28.5656 33.0855 27.0093 31.7857 27.0093 29.9232C27.0093 27.193 28.9371 24.5507 28.9371 21.7338C28.9371 16.954 22.08 17.8205 22.08 23.5975C22.08 24.8106 22.2331 26.1532 22.7811 27.2589C21.7728 31.5489 19.7141 37.9393 19.7141 42.3587C19.7141 43.7232 19.9116 45.0669 20.0424 46.4315C20.2901 46.7064 20.1663 46.6776 20.546 46.5401C24.2263 41.5569 24.0955 40.5829 25.7604 34.0618C26.6588 35.7522 28.9803 36.6615 30.8205 36.6615C38.5748 36.6615 42.0588 29.1872 42.0588 22.4502C42.0588 15.2798 35.793 10.6005 28.9149 10.6005L28.9161 10.5981Z" fill="white"/>
</svg>
