<svg width="56" height="55" viewBox="0 0 56 55" fill="none" xmlns="http://www.w3.org/2000/svg">
<rect x="0.863251" width="55" height="55" rx="15" fill="#4A90E2"/>
<path d="M28.9035 30.4693L29.0328 30.4711C30.1911 30.4708 31.3039 30.0151 32.1361 29.2002C32.9683 28.3853 33.4547 27.2752 33.4925 26.1043V26.0969C33.4565 24.9247 32.9709 23.8127 32.1386 22.9963C31.3062 22.1798 30.1923 21.7231 29.0328 21.7227L28.8962 21.7245H28.9035L28.7741 21.7227C27.6158 21.723 26.503 22.1788 25.6708 22.9936C24.8387 23.8085 24.3523 24.9187 24.3144 26.0895V26.0969C24.3504 27.2691 24.836 28.3811 25.6684 29.1975C26.5008 30.014 27.6146 30.4707 28.7741 30.4711L28.9108 30.4693H28.9035ZM28.9035 15.1724C25.9543 15.086 23.0914 16.1853 20.9419 18.2294C18.7925 20.2736 17.5316 23.096 17.4355 26.0785V26.0969C17.4388 27.5085 17.7228 28.9051 18.2705 30.2035C18.8182 31.5019 19.6184 32.6757 20.6235 33.6551L20.6272 33.6587C21.2371 32.716 22.0522 31.9269 23.0101 31.3519L23.0429 31.3334C22.3559 30.6501 21.8097 29.8358 21.4361 28.9376C21.0624 28.0394 20.8686 27.0751 20.8658 26.1006V26.0988C20.9297 24.0473 21.78 22.1015 23.2368 20.6727C24.6936 19.244 26.6428 18.4443 28.6721 18.443L28.9108 18.4466H28.8998L29.1275 18.443C31.1548 18.4428 33.1027 19.24 34.5594 20.6659C36.0161 22.0918 36.8676 24.0347 36.9338 26.084V26.0969C36.9312 27.0737 36.7367 28.0403 36.3618 28.9405C35.9868 29.8407 35.4388 30.6566 34.7495 31.3408L34.7477 31.3427C35.7135 31.9149 36.5368 32.7034 37.1542 33.6477L37.1706 33.6753C38.1803 32.695 38.9846 31.5191 39.5354 30.2177C40.0863 28.9164 40.3725 27.5162 40.3769 26.1006V26.0988C40.2846 23.1104 39.0232 20.2813 36.8699 18.2329C34.7165 16.1845 31.8473 15.0844 28.8925 15.1743H28.9089L28.9035 15.1724ZM28.9035 8.63137C18.7763 8.62953 10.5692 16.4512 10.5692 26.0969C10.6006 29.1214 11.4172 32.0844 12.9371 34.6892C14.4571 37.294 16.6272 39.4491 19.2299 40.9387L19.3137 40.9829C19.1996 40.1853 19.1423 39.3805 19.1425 38.5747V38.5728C19.1516 38.0035 19.2135 37.4562 19.3228 36.9256L19.3137 36.9827C17.6673 35.6967 16.3319 34.0486 15.4086 32.1631C14.4854 30.2777 13.9986 28.2045 13.985 26.1006V26.0951C13.985 18.2476 20.6636 11.8853 28.9016 11.8853C37.1397 11.8853 43.8183 18.2476 43.8183 26.0951C43.8063 28.1979 43.3212 30.2703 42.3999 32.1554C41.4786 34.0405 40.1451 35.6888 38.5005 36.9753L38.4696 36.9993C38.5697 37.4673 38.6317 38.0072 38.6444 38.5618V38.571C38.6428 39.4146 38.5807 40.257 38.4586 41.0916L38.4696 40.9958C43.6853 38.0164 47.1667 32.474 47.2359 26.1043V26.0951C47.2359 16.4475 39.027 8.62769 28.9016 8.62769L28.9035 8.63137ZM28.9035 32.6564L28.7249 32.6545C27.1324 32.6551 25.6023 33.2815 24.4578 34.4016C23.3133 35.5217 22.644 37.0477 22.5911 38.6576V38.6668C22.5911 41.9871 25.4203 52.8434 28.9016 52.8434C32.383 52.8434 35.2122 41.9797 35.2122 38.6668C35.1613 37.022 34.4669 35.4649 33.2816 34.3376C32.0963 33.2102 30.517 32.6049 28.8907 32.6545H28.8998L28.9035 32.6564Z" fill="white"/>
</svg>
