<svg width="52" height="57" viewBox="0 0 52 57" fill="none" xmlns="http://www.w3.org/2000/svg">
<rect y="0.768005" width="51.9011" height="55.704" rx="15" fill="#FFEE41"/>
<path d="M25.6379 49.0998C22.0622 49.0998 20.6922 47.7455 19.785 46.8496C18.3112 45.3978 17.0959 44.8582 15.8773 45.0694L13.0173 45.5916C12.8584 45.6241 12.614 45.6345 12.3859 45.5811C12.1815 45.5521 11.9966 45.4964 11.8225 45.4129C11.7555 45.385 11.6982 45.3595 11.6398 45.327C11.4073 45.1808 11.2451 45.0427 11.1035 44.8802C11.0721 44.8489 11.0408 44.8141 11.0116 44.7781C10.9305 44.6864 10.8688 44.5924 10.8234 44.5007C10.7899 44.445 10.7596 44.387 10.7337 44.3278C10.6818 44.2048 10.6234 44.0644 10.5801 43.8926C10.5358 43.765 10.512 43.6292 10.5109 43.4946C10.4926 43.2207 10.5131 42.9758 10.5715 42.746C10.5736 42.7356 10.5769 42.724 10.5791 42.7147C7.4358 42.1101 5.79875 40.3798 5.7209 40.2974C5.14025 39.673 4.94022 38.7609 5.20189 37.9172C5.48734 37.0503 6.1945 36.4434 7.01194 36.3517C7.00761 36.3517 7.09628 36.3424 7.23252 36.3389C9.33343 36.2739 12.9871 35.5045 13.8477 31.0737C13.9094 30.7581 13.8445 30.4006 13.6769 30.1419C13.5677 29.9724 13.4358 29.8749 13.2833 29.8494C11.536 29.557 10.1822 28.5299 9.56915 27.0317C9.13448 25.9699 9.14637 24.8128 9.59942 24.084C10.4115 22.7796 11.4971 22.3653 13.2184 22.717C13.2898 22.7309 13.3601 22.7529 13.4271 22.7831L13.7807 22.9375L13.6391 21.148C13.3666 17.5945 14.4998 14.0585 16.7477 11.4392C18.9935 8.82346 22.1833 7.32178 25.4974 7.32178H25.7785C29.0926 7.32178 32.2834 8.82346 34.5292 11.4404C36.7761 14.0596 37.9093 17.598 37.6368 21.1457L37.4941 22.9398L37.8477 22.7843C37.9158 22.7553 37.985 22.7321 38.0564 22.7181C39.7821 22.3688 40.8633 22.7785 41.6754 24.0852C42.1317 24.8198 42.1425 25.9861 41.7013 27.0561C41.0926 28.5392 39.7626 29.55 38.0553 29.8297C37.8444 29.8645 37.7006 30.0258 37.6184 30.1535C37.4422 30.4297 37.373 30.8068 37.44 31.1364C38.3213 35.515 41.9554 36.2763 44.0412 36.3401C44.1785 36.3436 44.2683 36.3528 44.304 36.3586C45.0803 36.4445 45.7885 37.0526 46.0664 37.8986C46.0686 37.9044 46.0707 37.9114 46.0718 37.9172C46.3346 38.762 46.1356 39.6754 45.5517 40.3009C45.4793 40.3798 43.8498 42.1101 40.7033 42.7147C40.713 42.7553 40.7228 42.8041 40.7293 42.8586C40.7682 43.0547 40.7801 43.2648 40.7649 43.4946C40.7639 43.6327 40.7401 43.7696 40.6947 43.8984C40.6514 44.0679 40.5952 44.2013 40.5563 44.2953C40.5325 44.3522 40.5 44.4148 40.4654 44.474L40.4168 44.5645L40.4157 44.5634C40.3746 44.6377 40.327 44.7073 40.274 44.7688C40.2416 44.8094 40.207 44.8477 40.1724 44.8837C40.0491 45.0287 39.8848 45.1726 39.6988 45.2933C39.6447 45.327 39.5204 45.3885 39.462 45.4129C39.2771 45.5011 39.0944 45.5545 38.8868 45.5835C38.6565 45.6403 38.4283 45.6299 38.2326 45.5881L35.3943 45.0717C34.1908 44.8523 32.9657 45.3978 31.5622 46.7788C30.5837 47.7455 29.2148 49.0998 25.6379 49.0998ZM16.3985 42.7019C17.9955 42.7019 19.5644 43.4818 21.1744 45.067C22.0265 45.9096 22.9066 46.7788 25.6379 46.7788C28.3692 46.7788 29.2494 45.9084 30.0257 45.1413C32.0066 43.1917 33.8524 42.4397 35.7522 42.7797L38.5505 43.2892C38.5656 43.2868 38.5797 43.2845 38.5937 43.2822C38.5905 43.2625 38.5883 43.2439 38.5862 43.2242L38.5819 43.2253C38.5591 43.1766 38.3591 42.666 38.2326 41.9465C38.1742 41.6204 38.251 41.2838 38.4391 41.0204C38.6273 40.7569 38.9127 40.5945 39.222 40.5713C42.3295 40.3461 43.9644 38.7168 44.0228 38.6576C44.0207 38.6553 44.0196 38.6541 44.0196 38.6541C39.3528 38.5183 36.1987 35.9548 35.3261 31.6261C35.1348 30.678 35.3261 29.6336 35.8376 28.8375C36.2971 28.1214 36.9697 27.6584 37.7309 27.5354C38.8349 27.3543 39.3625 26.7915 39.6112 26.3505C39.888 25.8608 39.8815 25.4209 39.848 25.3165C39.6556 25.0159 39.5193 24.7943 38.5602 24.9788L36.6766 25.8027C36.3274 25.9548 35.9317 25.9014 35.6267 25.6635C35.324 25.4244 35.1575 25.0322 35.191 24.6295L35.4829 20.9507C35.7089 18.0065 34.805 15.1853 32.9387 13.0105C31.0724 10.8393 28.5303 9.64278 25.7785 9.64278H25.4974C22.7455 9.64278 20.2035 10.8393 18.3383 13.0117C16.472 15.1865 15.568 18.0088 15.794 20.9553L16.086 24.6306C16.1173 25.0333 15.9519 25.4256 15.6491 25.6646C15.3442 25.9025 14.9474 25.9559 14.6003 25.8039L12.7157 24.9799C11.7533 24.7977 11.6182 25.0194 11.3997 25.3734C11.3954 25.4198 11.3911 25.8515 11.6625 26.3342C11.9177 26.7857 12.4626 27.3648 13.6153 27.5574C14.3549 27.6793 15.0079 28.1295 15.4556 28.8224C15.9562 29.5987 16.1465 30.6177 15.9649 31.5495C15.1139 35.9258 11.9544 38.5183 7.29415 38.6611C7.26604 38.6738 8.90416 40.345 12.0539 40.5736C12.3632 40.5968 12.6475 40.7593 12.8368 41.0227C13.026 41.285 13.1017 41.6227 13.0433 41.9476C12.9168 42.6683 12.7146 43.1812 12.6919 43.2369C12.6886 43.2474 12.6832 43.2625 12.6767 43.281C12.6897 43.2926 12.7027 43.2857 12.7157 43.288L15.5194 42.7797C15.8146 42.7286 16.1076 42.7019 16.3985 42.7019ZM38.823 43.7777L39.0738 44.3266L38.823 43.7777ZM38.4326 43.7638C38.424 43.8218 38.4186 43.8833 38.4186 43.9472C38.4186 43.8868 38.4229 43.8241 38.4326 43.7638ZM39.2793 43.0536H39.2944L39.6231 42.9097L39.249 43.0234L39.2793 43.0536Z" fill="url(#paint0_linear_93002_527)"/>
<path d="M44.9796 38.2156C44.839 37.7862 44.493 37.4845 44.0822 37.438C43.8054 37.3951 37.5967 37.6725 36.3154 31.3129C36.0786 30.1362 36.7165 28.7958 37.8259 28.6136C40.7086 28.1424 41.206 25.4617 40.7086 24.6609C40.2112 23.8602 39.6273 23.5004 38.1892 23.7906L36.1997 24.6609L36.4916 20.9822C37.0106 14.2164 32.0368 8.41394 25.7113 8.41394H25.5708H25.4302C19.1048 8.41394 14.1309 14.2164 14.6499 20.9822L14.9419 24.6609L12.9523 23.7906C11.5142 23.5004 10.9303 23.8602 10.433 24.6609C9.93557 25.4617 10.433 28.1424 13.3816 28.6345C14.4531 28.8132 15.0608 30.1037 14.8391 31.2433C13.5892 37.6736 7.3362 37.3951 7.05939 37.438C6.64851 37.4845 6.3025 37.7862 6.16193 38.2156C6.03218 38.6334 6.1295 39.0976 6.42144 39.4109C6.52957 39.5269 8.38936 41.407 11.9143 41.6623C11.8062 42.2773 11.6332 42.7067 11.6332 42.7067C11.6007 42.7763 11.5899 42.8344 11.5683 42.904C11.5575 42.9284 11.5467 42.9504 11.5467 42.9852C11.5142 43.1129 11.5142 43.2522 11.525 43.3798C11.5359 43.3914 11.525 43.403 11.525 43.4146C11.5359 43.4378 11.5467 43.461 11.5467 43.4726C11.5683 43.5887 11.6115 43.6815 11.6548 43.786C11.6764 43.8092 11.6872 43.844 11.7089 43.8788C11.7089 43.8904 11.7197 43.902 11.7305 43.9136C11.7413 43.9485 11.7737 43.9601 11.7954 43.9833C11.8711 44.0761 11.9576 44.1573 12.0657 44.227C12.1089 44.2502 12.1522 44.2618 12.1954 44.285C12.2927 44.3314 12.3901 44.3546 12.4982 44.3662C12.5306 44.3662 12.5631 44.3894 12.5955 44.3894C12.6496 44.3894 12.7144 44.3894 12.7685 44.3778L15.6339 43.8556C17.4472 43.5353 19.028 44.5264 20.3774 45.8552C21.2457 46.7104 22.327 47.8709 25.5708 47.8709C28.8146 47.8709 29.8959 46.7104 30.7641 45.8552C32.1136 44.5264 33.6944 43.5353 35.5077 43.8556L38.373 44.3778C38.4271 44.3894 38.492 44.3894 38.546 44.3894C38.5785 44.3894 38.6109 44.3662 38.6434 44.3662C38.7515 44.3546 38.8488 44.3314 38.9461 44.285C38.9894 44.2618 39.0326 44.2502 39.0759 44.227C39.184 44.1573 39.2705 44.0761 39.3462 43.9833C39.3678 43.9601 39.4002 43.9485 39.4111 43.9136C39.4219 43.902 39.4327 43.8904 39.4327 43.8788C39.4543 43.844 39.4651 43.8092 39.4867 43.786C39.53 43.6815 39.5732 43.5887 39.5949 43.4726C39.5949 43.461 39.6057 43.4378 39.6165 43.4146C39.6165 43.403 39.6057 43.3914 39.6165 43.3798C39.6273 43.2522 39.6273 43.1129 39.5949 42.9852C39.5949 42.9504 39.5841 42.9272 39.5732 42.904C39.5516 42.8344 39.5408 42.7763 39.5084 42.7067C39.5084 42.7067 39.3354 42.2773 39.2272 41.6623C42.7522 41.407 44.612 39.5269 44.7201 39.4109C45.0121 39.0976 45.1094 38.6334 44.9796 38.2156Z" fill="white"/>
<defs>
<linearGradient id="paint0_linear_93002_527" x1="25.6369" y1="1.87787" x2="25.6369" y2="49.4282" gradientUnits="userSpaceOnUse">
<stop stop-color="#A4A4A4"/>
<stop offset="0.63" stop-color="#7F7F7F"/>
<stop offset="1" stop-color="#6F6F6F"/>
</linearGradient>
</defs>
</svg>
