<svg width="55" height="56" viewBox="0 0 55 56" fill="none" xmlns="http://www.w3.org/2000/svg">
<rect x="0.841553" y="0.161621" width="53.9208" height="55.704" rx="15" fill="#FF5722"/>
<path d="M15.3285 37.2978C15.8564 37.2978 16.449 37.2978 17.1 37.2978V24.4211C16.1168 25.3433 15.5951 26.4589 15.3285 27.2964V37.2978ZM25.0715 23.5587C24.4736 23.2676 23.5197 22.9 22.4143 22.7876V37.2969C23.2788 37.2969 24.1681 37.2969 25.0715 37.2969V23.5587ZM18.8714 37.2978C19.7067 37.2978 20.5986 37.2978 21.5286 37.2978V22.7618C20.4896 22.7895 19.6057 22.9737 18.8714 23.2759V37.2978ZM10.0142 28.9464C8.97077 29.7718 8.24271 31.1114 8.24271 32.6674C8.24271 34.1286 8.94686 35.4193 10.0142 36.265V28.9464ZM42.7816 27.1619C41.5026 27.1619 40.7595 27.6418 40.7595 27.6418C40.7595 27.6418 40.0164 19.822 32.5479 19.822C28.2025 19.822 26.4984 22.3132 25.9572 23.4122V37.2969C33.7738 37.2969 42.1634 37.2969 42.1634 37.2969C42.1634 37.2969 47.3617 37.2103 47.3617 32.2731C47.3617 28.4728 44.0606 27.1619 42.7816 27.1619ZM13.5571 28.1605C13.2072 28.1135 12.8113 28.0795 12.3693 28.0795C12.1718 28.0795 11.9787 28.1135 11.7856 28.1467V37.1449C12.1603 37.2407 12.5482 37.2978 12.9468 37.2978C13.0805 37.2978 13.2949 37.2978 13.5571 37.2978V28.1605Z" fill="white"/>
</svg>
