<svg width="54" height="56" viewBox="0 0 54 56" fill="none" xmlns="http://www.w3.org/2000/svg">
<rect y="0.161621" width="53.9208" height="55.704" rx="15" fill="#26E07F"/>
<path d="M27.4893 7.8075C16.3923 7.8075 7.40115 17.096 7.40115 28.56C7.40115 40.024 16.3923 49.3124 27.4893 49.3124C38.5863 49.3124 47.5774 40.024 47.5774 28.56C47.5774 17.096 38.5863 7.8075 27.4893 7.8075ZM27.4893 11.2662C29.6901 11.2571 31.8709 11.6982 33.9059 12.564C35.9409 13.4299 37.7898 14.7034 39.3461 16.3111C40.9023 17.9187 42.135 19.8288 42.9732 21.9311C43.8113 24.0334 44.2382 26.2864 44.2294 28.56C44.2382 30.8336 43.8113 33.0865 42.9732 35.1888C42.135 37.2911 40.9023 39.2012 39.3461 40.8089C37.7898 42.4166 35.9409 43.6901 33.9059 44.5559C31.8709 45.4218 29.6901 45.8628 27.4893 45.8537C25.2885 45.8628 23.1077 45.4218 21.0727 44.5559C19.0377 43.6901 17.1887 42.4166 15.6325 40.8089C14.0763 39.2012 12.8435 37.2911 12.0054 35.1888C11.1673 33.0865 10.7403 30.8336 10.7492 28.56C10.7403 26.2864 11.1673 24.0334 12.0054 21.9311C12.8435 19.8288 14.0763 17.9187 15.6325 16.3111C17.1887 14.7034 19.0377 13.4299 21.0727 12.564C23.1077 11.6982 25.2885 11.2571 27.4893 11.2662ZM24.8209 19.4808C21.565 19.4808 18.7275 19.792 16.0324 20.6706C15.3192 20.8176 14.725 21.3727 14.725 22.3999C14.725 23.4255 15.4582 24.3316 16.4509 24.1812C16.8761 24.1812 17.164 24.0204 17.4452 24.0204C19.7135 23.4324 22.2714 23.1557 24.8209 23.1557C29.7777 23.1557 34.865 24.2971 38.2649 26.3446C38.6901 26.4934 38.8341 26.668 39.2593 26.668C40.2536 26.668 40.9467 25.9123 41.0906 24.885C41.0906 24.0065 40.6654 23.4462 40.0963 23.1557C35.8459 20.6688 30.2029 19.4808 24.8209 19.4808ZM24.3505 25.9123C21.3758 25.9123 19.2565 26.3516 17.1305 26.9395C16.4257 27.2283 16.0324 27.6832 16.0324 28.56C16.0324 29.2898 16.5948 30.0196 17.4452 30.0196C17.7331 30.0196 17.857 30.0057 18.2822 29.857C19.8391 29.4177 21.9768 29.1549 24.2467 29.1549C28.9206 29.1549 32.9884 30.3308 35.9648 32.2349C36.2444 32.3836 36.534 32.5047 36.9575 32.5047C37.8079 32.5047 38.3703 31.761 38.3703 30.8842C38.3703 30.2962 38.1025 29.7152 37.5333 29.4246C33.8505 27.0813 29.17 25.9123 24.3505 25.9123ZM24.8209 32.2349C22.4154 32.2349 20.1337 32.5116 17.8637 33.0996C17.2946 33.2483 16.8694 33.6668 16.8694 34.3966C16.8694 34.9846 17.3146 35.5864 18.0211 35.5864C18.165 35.5864 18.5768 35.4238 18.8581 35.4238C20.7621 34.9651 22.7101 34.729 24.6652 34.72C28.2024 34.72 31.4383 35.5985 34.1334 37.2068C34.4214 37.3555 34.7411 37.4766 35.0223 37.4766C35.5915 37.4766 36.1339 37.0373 36.2778 36.4511C36.2778 35.7144 35.9698 35.4429 35.5446 35.1541C32.4259 33.2483 28.7833 32.2349 24.8209 32.2349Z" fill="white"/>
</svg>
