<svg width="52" height="57" viewBox="0 0 52 57" fill="none" xmlns="http://www.w3.org/2000/svg">
<rect y="0.996826" width="51.9011" height="55.704" rx="15" fill="url(#paint0_linear_93002_380)"/>
<path d="M11.1943 17.1538C11.1943 16.0551 11.5964 15.0015 12.312 14.2246C13.0277 13.4478 13.9984 13.0114 15.0105 13.0114H37.9081C38.9202 13.0114 39.8909 13.4478 40.6066 14.2246C41.3223 15.0015 41.7243 16.0551 41.7243 17.1538V33.7235C41.7243 34.8221 41.3223 35.8758 40.6066 36.6526C39.8909 37.4295 38.9202 37.8659 37.9081 37.8659H19.6168C19.1107 37.866 18.6255 38.0843 18.2677 38.4728L12.8238 44.3819C12.6905 44.527 12.5205 44.6259 12.3354 44.6661C12.1503 44.7063 11.9584 44.6859 11.7839 44.6076C11.6094 44.5294 11.4603 44.3967 11.3553 44.2263C11.2504 44.056 11.1943 43.8557 11.1943 43.6508V17.1538ZM17.8727 19.225C17.6197 19.225 17.377 19.3341 17.1981 19.5283C17.0192 19.7225 16.9187 19.9859 16.9187 20.2606C16.9187 20.5353 17.0192 20.7987 17.1981 20.9929C17.377 21.1871 17.6197 21.2962 17.8727 21.2962H35.0459C35.2989 21.2962 35.5416 21.1871 35.7205 20.9929C35.8994 20.7987 36 20.5353 36 20.2606C36 19.9859 35.8994 19.7225 35.7205 19.5283C35.5416 19.3341 35.2989 19.225 35.0459 19.225H17.8727ZM17.8727 24.403C17.6197 24.403 17.377 24.5121 17.1981 24.7063C17.0192 24.9006 16.9187 25.164 16.9187 25.4386C16.9187 25.7133 17.0192 25.9767 17.1981 26.1709C17.377 26.3651 17.6197 26.4742 17.8727 26.4742H35.0459C35.2989 26.4742 35.5416 26.3651 35.7205 26.1709C35.8994 25.9767 36 25.7133 36 25.4386C36 25.164 35.8994 24.9006 35.7205 24.7063C35.5416 24.5121 35.2989 24.403 35.0459 24.403H17.8727ZM17.8727 29.5811C17.6197 29.5811 17.377 29.6902 17.1981 29.8844C17.0192 30.0786 16.9187 30.342 16.9187 30.6167C16.9187 30.8913 17.0192 31.1547 17.1981 31.3489C17.377 31.5432 17.6197 31.6523 17.8727 31.6523H27.4134C27.6664 31.6523 27.9091 31.5432 28.088 31.3489C28.2669 31.1547 28.3674 30.8913 28.3674 30.6167C28.3674 30.342 28.2669 30.0786 28.088 29.8844C27.9091 29.6902 27.6664 29.5811 27.4134 29.5811H17.8727Z" fill="white"/>
<defs>
<linearGradient id="paint0_linear_93002_380" x1="25.9505" y1="0.996826" x2="25.9505" y2="56.7008" gradientUnits="userSpaceOnUse">
<stop stop-color="#2196F3"/>
<stop offset="1" stop-color="#0C539D"/>
</linearGradient>
</defs>
</svg>
