<svg width="55" height="57" viewBox="0 0 55 57" fill="none" xmlns="http://www.w3.org/2000/svg">
<rect y="0.768005" width="55" height="55.704" rx="15" fill="black"/>
<path fill-rule="evenodd" clip-rule="evenodd" d="M35.9953 22.8239C38.403 24.5662 41.3532 25.5906 44.5386 25.5906V19.3842C43.9351 19.3842 43.3347 19.3208 42.745 19.1939V24.0788C39.5596 24.0788 36.611 23.0529 34.2016 21.3122V33.9755C34.2016 40.3103 29.1279 45.4459 22.8701 45.4459C20.5357 45.4459 18.3647 44.7311 16.5619 43.5056C18.6198 45.6347 21.489 46.9561 24.6637 46.9561C30.9215 46.9561 35.9953 41.8205 35.9953 35.4858V22.8239ZM38.209 16.5634C36.9791 15.2033 36.1709 13.444 35.9953 11.499V10.7006H34.2948C34.7226 13.1717 36.1832 15.2838 38.209 16.5634ZM20.5204 38.6454C19.8329 37.7325 19.4616 36.6168 19.4632 35.4687C19.4632 32.5706 21.7839 30.2217 24.6469 30.2217C25.1801 30.2217 25.7103 30.3037 26.219 30.4677V24.1237C25.6247 24.0417 25.0258 24.0061 24.4254 24.0185V28.956C23.9166 28.792 23.3865 28.71 22.8518 28.71C19.9887 28.71 17.668 31.0588 17.668 33.957C17.6696 36.0072 18.8291 37.782 20.5204 38.6454Z" fill="#EC407A"/>
<path fill-rule="evenodd" clip-rule="evenodd" d="M34.2014 21.3122C36.6092 23.0545 39.5594 24.0788 42.7448 24.0788V19.1939C40.9664 18.8101 39.3928 17.8694 38.2088 16.5619C36.183 15.2822 34.7239 13.1717 34.2962 10.7006H29.8305V35.4858C29.8198 38.3746 27.5037 40.7142 24.6467 40.7142C22.9631 40.7142 21.4674 39.9018 20.5202 38.6439C18.8289 37.7804 17.6694 36.0057 17.6694 33.957C17.6694 31.0588 19.9901 28.71 22.8531 28.71C23.4016 28.71 23.9302 28.7966 24.4267 28.956V24.02C18.2789 24.1484 13.3351 29.233 13.3351 35.4873C13.3351 38.6098 14.5664 41.4399 16.5648 43.5071C18.3676 44.7326 20.5385 45.4475 22.873 45.4475C29.1307 45.4475 34.2045 40.3119 34.2045 33.9771L34.2014 21.3122Z" fill="white"/>
<path fill-rule="evenodd" clip-rule="evenodd" d="M42.7447 19.1952V17.8738C41.1406 17.8769 39.57 17.422 38.2088 16.5616C39.4127 17.897 40.9985 18.8177 42.7447 19.1952ZM34.2946 10.7003C34.2534 10.4636 34.2228 10.2269 34.2014 9.98702V9.1886H28.0353V33.9753C28.0261 36.8642 25.7085 39.2038 22.8516 39.2038C22.0128 39.2038 21.2214 39.0026 20.5202 38.6436C21.4674 39.9016 22.9631 40.714 24.6467 40.714C27.5036 40.714 29.8197 38.3744 29.8304 35.4855V10.7003H34.2946ZM24.4252 24.0198V22.6133C23.9103 22.5421 23.3909 22.5065 22.8699 22.5065C16.6106 22.5065 11.5384 27.6421 11.5384 33.9769C11.5384 37.9489 13.5321 41.4489 16.5617 43.5069C14.5634 41.4397 13.332 38.6096 13.332 35.4871C13.332 29.2328 18.2774 24.1482 24.4252 24.0198Z" fill="#81D4FA"/>
</svg>
