<svg width="55" height="56" viewBox="0 0 55 56" fill="none" xmlns="http://www.w3.org/2000/svg">
<rect width="55" height="55.704" rx="15" fill="black"/>
<path fill-rule="evenodd" clip-rule="evenodd" d="M35.9953 22.0559C38.403 23.7982 41.3532 24.8225 44.5386 24.8225V18.6162C43.9351 18.6162 43.3347 18.5527 42.745 18.4258V23.3108C39.5596 23.3108 36.611 22.2849 34.2016 20.5441V33.2075C34.2016 39.5423 29.1279 44.6779 22.8701 44.6779C20.5357 44.6779 18.3647 43.963 16.5619 42.7375C18.6198 44.8667 21.489 46.1881 24.6637 46.1881C30.9215 46.1881 35.9953 41.0525 35.9953 34.7177V22.0559ZM38.209 15.7954C36.9791 14.4353 36.171 12.6759 35.9953 10.7309V9.93253H34.2948C34.7226 12.4036 36.1832 14.5157 38.209 15.7954ZM20.5204 37.8774C19.8329 36.9644 19.4616 35.8488 19.4632 34.7007C19.4632 31.8025 21.7839 29.4537 24.6469 29.4537C25.1801 29.4537 25.7103 29.5357 26.219 29.6997V23.3556C25.6247 23.2736 25.0258 23.238 24.4254 23.2504V28.188C23.9166 28.0239 23.3865 27.9419 22.8518 27.9419C19.9887 27.9419 17.668 30.2908 17.668 33.1889C17.6696 35.2392 18.8291 37.014 20.5204 37.8774Z" fill="#EC407A"/>
<path fill-rule="evenodd" clip-rule="evenodd" d="M34.2014 20.5441C36.6092 22.2864 39.5594 23.3108 42.7448 23.3108V18.4258C40.9664 18.0421 39.3928 17.1013 38.2088 15.7938C36.183 14.5142 34.7239 12.4036 34.2962 9.93253H29.8305V34.7177C29.8198 37.6066 27.5037 39.9462 24.6467 39.9462C22.9631 39.9462 21.4674 39.1338 20.5202 37.8758C18.8289 37.0124 17.6694 35.2376 17.6694 33.1889C17.6694 30.2908 19.9901 27.9419 22.8531 27.9419C23.4016 27.9419 23.9302 28.0286 24.4267 28.188V23.252C18.2789 23.3804 13.3351 28.4649 13.3351 34.7193C13.3351 37.8418 14.5664 40.6719 16.5648 42.7391C18.3676 43.9646 20.5385 44.6794 22.873 44.6794C29.1307 44.6794 34.2045 39.5438 34.2045 33.2091L34.2014 20.5441Z" fill="white"/>
<path fill-rule="evenodd" clip-rule="evenodd" d="M42.7447 18.4272V17.1057C41.1406 17.1088 39.57 16.6539 38.2088 15.7936C39.4127 17.129 40.9985 18.0496 42.7447 18.4272ZM34.2946 9.93231C34.2534 9.69557 34.2228 9.45882 34.2014 9.21899V8.42056H28.0353V33.2073C28.0261 36.0962 25.7085 38.4357 22.8516 38.4357C22.0128 38.4357 21.2214 38.2346 20.5202 37.8756C21.4674 39.1336 22.9631 39.9459 24.6467 39.9459C27.5036 39.9459 29.8197 37.6064 29.8304 34.7175V9.93231H34.2946ZM24.4252 23.2518V21.8452C23.9103 21.774 23.3909 21.7385 22.8699 21.7385C16.6106 21.7385 11.5384 26.8741 11.5384 33.2088C11.5384 37.1808 13.5321 40.6809 16.5617 42.7389C14.5634 40.6716 13.332 37.8416 13.332 34.719C13.332 28.4647 18.2774 23.3802 24.4252 23.2518Z" fill="#81D4FA"/>
</svg>
