<?xml version="1.0" encoding="UTF-8"?>
<svg xmlns="http://www.w3.org/2000/svg" xmlns:xlink="http://www.w3.org/1999/xlink" viewBox="0 0 240 240" width="240px" height="240px">
<g id="surface45873041">
<path style=" stroke:none;fill-rule:nonzero;fill:rgb(83.529413%,83.529413%,83.529413%);fill-opacity:1;" d="M 78 240 C 34.921875 240 0 205.078125 0 162 L 0 78 C 0 34.921875 34.921875 0 78 0 L 162 0 C 205.078125 0 240 34.921875 240 78 L 240 162 C 240 205.078125 205.078125 240 162 240 Z M 78 240 "/>
<path style=" stroke:none;fill-rule:nonzero;fill:rgb(51.372552%,26.274511%,78.431374%);fill-opacity:1;" d="M 208.769531 139.789062 L 166.496094 188.285156 C 165.542969 189.375 164.167969 190 162.726562 190 L 131.851562 190 C 130.65625 190 129.5 190.425781 128.59375 191.203125 L 96.40625 218.800781 C 95.5 219.574219 94.34375 220 93.148438 220 L 85 220 C 82.238281 220 80 217.761719 80 215 L 80 195 C 80 192.238281 77.761719 190 75 190 L 35 190 C 32.238281 190 30 187.761719 30 185 L 30 79.714844 C 30 78.933594 30.179688 78.171875 30.53125 77.476562 L 50.433594 37.761719 C 51.285156 36.070312 53.015625 35 54.90625 35 L 205 35 C 207.761719 35 210 37.238281 210 40 L 210 136.503906 C 210 137.714844 209.566406 138.878906 208.769531 139.789062 Z M 208.769531 139.789062 "/>
<path style=" stroke:none;fill-rule:nonzero;fill:rgb(98.039216%,98.039216%,98.039216%);fill-opacity:1;" d="M 195 131.84375 C 186.664062 141.230469 178.335938 150.613281 170 160 C 158.335938 160 146.664062 160 135 160 C 123.335938 170 111.664062 180 100 190 C 100 180 100 170 100 160 C 86.664062 159.960938 73.335938 159.917969 60 159.878906 C 60 123.25 60 86.625 60 50 C 105 50 150 50 195 50 C 195 77.28125 195 104.558594 195 131.84375 Z M 195 131.84375 "/>
<path style=" stroke:none;fill-rule:nonzero;fill:rgb(51.372552%,26.274511%,78.431374%);fill-opacity:1;" d="M 105 80 L 120 80 L 120 130 L 105 130 Z M 105 80 "/>
<path style=" stroke:none;fill-rule:nonzero;fill:rgb(51.372552%,26.274511%,78.431374%);fill-opacity:1;" d="M 150 80 L 165 80 L 165 130 L 150 130 Z M 150 80 "/>
</g>
</svg>
