<svg width="55" height="55" viewBox="0 0 55 55" fill="none" xmlns="http://www.w3.org/2000/svg">
<rect width="55" height="55" rx="15" fill="#993FEC"/>
<path d="M40.5496 29.7218L34.3624 36.8197C34.2229 36.9792 34.0217 37.0707 33.8107 37.0707H29.2918C29.1168 37.0707 28.9476 37.133 28.815 37.2468L24.1039 41.286C23.9713 41.3992 23.8021 41.4616 23.6271 41.4616H22.4345C22.0303 41.4616 21.7027 41.134 21.7027 40.7298V37.8025C21.7027 37.3983 21.3751 37.0707 20.9709 37.0707H15.1164C14.7122 37.0707 14.3846 36.7431 14.3846 36.3389V20.9292C14.3846 20.8148 14.4109 20.7034 14.4624 20.6016L17.3753 14.7889C17.4999 14.5413 17.7532 14.3846 18.0299 14.3846H39.9979C40.4021 14.3846 40.7297 14.7122 40.7297 15.1165V29.2409C40.7297 29.4182 40.6663 29.5885 40.5496 29.7218Z" fill="white"/>
<path d="M38.5355 28.5581C37.3155 29.932 36.0965 31.3053 34.8765 32.6791C33.1693 32.6791 31.461 32.6791 29.7538 32.6791C28.0466 34.1428 26.3383 35.6064 24.6312 37.07C24.6312 35.6064 24.6312 34.1428 24.6312 32.6791C22.6793 32.6734 20.7286 32.6671 18.7767 32.6614C18.7767 27.3003 18.7767 21.9398 18.7767 16.5793C25.363 16.5793 31.9492 16.5793 38.5355 16.5793C38.5355 20.5723 38.5355 24.5646 38.5355 28.5581Z" fill="#993FEC"/>
<path d="M25.3608 20.9714H27.5563V28.2895H25.3608V20.9714Z" fill="white"/>
<path d="M31.9476 20.9714H34.143V28.2895H31.9476V20.9714Z" fill="white"/>
</svg>
