<svg width="53" height="57" viewBox="0 0 53 57" fill="none" xmlns="http://www.w3.org/2000/svg">
<rect x="0.901123" y="0.768005" width="51.9011" height="55.704" rx="15" fill="#0EA2F3"/>
<path d="M45.6785 18.3245C44.4445 18.8983 43.1175 19.2809 41.7173 19.4621C43.1406 18.5751 44.2361 17.1602 44.75 15.488C43.4182 16.3074 41.9424 16.9096 40.3727 17.227C39.1189 15.8322 37.3304 14.9669 35.3495 14.9669C31.5442 14.9669 28.4589 18.1767 28.4589 22.1349C28.4589 22.6953 28.5218 23.2407 28.6387 23.7703C22.9137 23.4688 17.8355 20.6114 14.4384 16.2748C13.8417 17.3348 13.506 18.5751 13.506 19.8847C13.506 22.3729 14.7192 24.5638 16.5698 25.8542C15.44 25.8183 14.3771 25.4884 13.4463 24.9588C13.4463 24.9805 13.4463 25.0123 13.4463 25.0432C13.4463 28.5203 15.8219 31.4161 18.9708 32.0751C18.3956 32.2404 17.787 32.3323 17.1601 32.3323C16.7154 32.3323 16.2818 32.2797 15.8617 32.2003C16.7384 35.0418 19.2819 37.1191 22.2956 37.1809C19.9375 39.1003 16.9676 40.2495 13.7383 40.2495C13.1806 40.2495 12.6348 40.2161 12.0954 40.1476C15.1481 42.1764 18.7703 43.365 22.6591 43.365C35.3304 43.365 42.263 32.4409 42.263 22.9634C42.263 22.6527 42.2535 22.3437 42.24 22.038C43.5925 21.0349 44.758 19.7703 45.6785 18.3245Z" fill="white"/>
</svg>
