<svg width="55" height="55" viewBox="0 0 55 55" fill="none" xmlns="http://www.w3.org/2000/svg">
<rect width="55" height="55" rx="15" fill="#0EA2F3"/>
<path d="M47.4509 17.3346C46.1433 17.9012 44.737 18.2789 43.2532 18.4578C44.7615 17.582 45.9224 16.185 46.467 14.534C45.0557 15.343 43.4918 15.9376 41.8284 16.251C40.4997 14.8738 38.6044 14.0194 36.5052 14.0194C32.4727 14.0194 29.2032 17.1886 29.2032 21.0968C29.2032 21.6502 29.2698 22.1887 29.3938 22.7115C23.3269 22.4138 17.9455 19.5926 14.3456 15.3108C13.7132 16.3574 13.3575 17.582 13.3575 18.8751C13.3575 21.3318 14.6432 23.495 16.6042 24.7691C15.407 24.7337 14.2806 24.4079 13.2942 23.8851C13.2942 23.9065 13.2942 23.9378 13.2942 23.9684C13.2942 27.4015 15.8117 30.2607 19.1486 30.9114C18.5391 31.0746 17.8941 31.1654 17.2297 31.1654C16.7585 31.1654 16.299 31.1134 15.8538 31.0351C16.7829 33.8406 19.4783 35.8916 22.6719 35.9526C20.173 37.8478 17.0257 38.9825 13.6036 38.9825C13.0126 38.9825 12.4343 38.9495 11.8627 38.8819C15.0976 40.8851 18.9361 42.0586 23.0571 42.0586C36.4849 42.0586 43.8316 31.2726 43.8316 21.9149C43.8316 21.6081 43.8214 21.303 43.8071 21.0011C45.2403 20.0107 46.4755 18.7621 47.4509 17.3346Z" fill="white"/>
</svg>
