<svg width="52" height="56" viewBox="0 0 52 56" fill="none" xmlns="http://www.w3.org/2000/svg">
<rect width="51.9011" height="55.704" rx="15" fill="#2775CA"/>
<path d="M26.4586 10.9224C35.4517 10.9224 42.7413 18.7461 42.7413 28.3982C42.7413 38.0503 35.4517 45.874 26.4586 45.874C17.4655 45.874 10.1759 38.0503 10.1759 28.3982C10.1759 18.7461 17.4655 10.9224 26.4586 10.9224ZM29.8698 16.9953C29.6215 16.8642 29.3732 16.9953 29.3122 17.2607C29.2501 17.3273 29.2501 17.3939 29.2501 17.5261V18.4545L29.2603 18.5681C29.3134 18.7928 29.4421 18.9885 29.6215 19.1175C34.4595 20.9743 36.9406 26.7413 35.1414 31.8453C34.2112 34.6305 32.1647 36.7505 29.6215 37.7455C29.3732 37.8777 29.2501 38.0765 29.2501 38.4085V39.3369L29.2552 39.433C29.2648 39.5379 29.3057 39.6367 29.3716 39.7148C29.4376 39.7928 29.5252 39.8461 29.6215 39.8667C29.6836 39.8667 29.8078 39.8667 29.8698 39.8011C31.2656 39.3333 32.5614 38.5738 33.6826 37.5662C34.8038 36.5587 35.7282 35.3231 36.4026 33.9306C37.077 32.538 37.4881 31.016 37.6122 29.4523C37.7364 27.8885 37.571 26.3138 37.1258 24.8189C36.0104 21.0398 33.2811 18.188 29.8698 16.9953ZM23.2957 16.9297C23.2336 16.9297 23.1095 16.9297 23.0474 16.9953C21.6516 17.4631 20.3558 18.2226 19.2346 19.2302C18.1134 20.2377 17.189 21.4733 16.5146 22.8658C15.8402 24.2584 15.4291 25.7803 15.305 27.3441C15.1809 28.9079 15.3462 30.4825 15.7914 31.9774C16.9068 35.691 19.5741 38.5418 23.0474 39.7345C23.2957 39.8667 23.544 39.7345 23.6051 39.4691C23.6671 39.4036 23.6671 39.3358 23.6671 39.2037V38.2753L23.657 38.1879C23.6142 38.0033 23.4545 37.7925 23.2957 37.6789C18.4577 35.8221 15.9766 30.0551 17.7759 24.9511C18.706 22.1659 20.7525 20.0459 23.2957 19.0508C23.544 18.9187 23.6671 18.7199 23.6671 18.3879V17.4595L23.6621 17.3633C23.6524 17.2585 23.6115 17.1597 23.5456 17.0816C23.4796 17.0035 23.392 16.9503 23.2957 16.9297ZM26.8932 20.3768H25.962L25.8724 20.3856C25.6689 20.4292 25.5203 20.6171 25.4654 20.9076V22.4324L25.2547 22.4674C23.5165 22.7994 22.4276 24.0871 22.4276 25.6807C22.4276 27.8674 23.6671 28.7291 26.2724 29.0612C28.0095 29.3921 28.5672 29.7908 28.5672 30.8514C28.5672 31.9108 27.6991 32.6404 26.5207 32.6404C24.9077 32.6404 24.35 31.9119 24.1638 30.9169C24.1027 30.6526 23.9155 30.5193 23.7292 30.5193H22.6749L22.5945 30.527C22.4942 30.5444 22.4031 30.6002 22.3382 30.6841C22.2732 30.7681 22.2389 30.8744 22.2414 30.9835V31.049L22.275 31.2456C22.5701 32.801 23.5633 33.914 25.5285 34.2318V35.8232L25.5366 35.9193C25.5773 36.1356 25.7534 36.2951 26.0251 36.3529H26.9552L27.0448 36.3442C27.2483 36.3005 27.3969 36.1126 27.4519 35.8232V34.2307L27.6625 34.187C29.4058 33.7916 30.5527 32.4384 30.5527 30.717C30.5527 28.3971 29.2501 27.602 26.6448 27.2699C24.7835 27.0045 24.4121 26.4748 24.4121 25.5464C24.4121 24.618 25.0329 24.0216 26.2724 24.0216C27.3888 24.0216 28.0095 24.4192 28.3189 25.4142C28.3511 25.5104 28.4101 25.5937 28.4878 25.6529C28.5655 25.7121 28.6582 25.7443 28.7534 25.7452H29.7457L29.8261 25.7386C29.9268 25.7214 30.0182 25.6655 30.0834 25.5813C30.1486 25.4971 30.183 25.3904 30.1802 25.281V25.2154L30.1426 25.0265C29.9898 24.3475 29.6414 23.7376 29.147 23.2835C28.6526 22.8293 28.0373 22.5541 27.3888 22.4968V20.9076L27.3806 20.8115C27.3399 20.5942 27.1649 20.4347 26.8932 20.3768Z" fill="white"/>
</svg>
