<svg width="55" height="55" viewBox="0 0 55 55" fill="none" xmlns="http://www.w3.org/2000/svg">
<rect width="55" height="55" rx="15" fill="#3599F9"/>
<path d="M35.5615 31.4902C35.6996 30.3514 35.8031 29.2125 35.8031 28.0392C35.8031 26.8659 35.6996 25.727 35.5615 24.5882H41.3937C41.6698 25.6925 41.8423 26.8486 41.8423 28.0392C41.8423 29.2298 41.6698 30.3859 41.3937 31.4902H35.5615ZM32.5074 41.0839C33.5427 39.1686 34.3365 37.098 34.8886 34.9412H39.9788C38.3071 37.8198 35.6549 40.0003 32.5074 41.0839ZM32.0761 31.4902H24.0008C23.8282 30.3514 23.7247 29.2125 23.7247 28.0392C23.7247 26.8659 23.8282 25.7098 24.0008 24.5882H32.0761C32.2314 25.7098 32.3521 26.8659 32.3521 28.0392C32.3521 29.2125 32.2314 30.3514 32.0761 31.4902ZM28.0384 41.7741C26.6063 39.7035 25.4502 37.4086 24.7427 34.9412H31.3341C30.6266 37.4086 29.4706 39.7035 28.0384 41.7741ZM21.1364 21.1372H16.098C17.7525 18.2509 20.4028 16.0669 23.5521 14.9945C22.5168 16.9098 21.7404 18.9804 21.1364 21.1372ZM16.098 34.9412H21.1364C21.7404 37.098 22.5168 39.1686 23.5521 41.0839C20.4094 39.9997 17.7629 37.8188 16.098 34.9412ZM14.6831 31.4902C14.407 30.3859 14.2345 29.2298 14.2345 28.0392C14.2345 26.8486 14.407 25.6925 14.6831 24.5882H20.5153C20.3772 25.727 20.2737 26.8659 20.2737 28.0392C20.2737 29.2125 20.3772 30.3514 20.5153 31.4902H14.6831ZM28.0384 14.287C29.4706 16.3576 30.6266 18.6698 31.3341 21.1372H24.7427C25.4502 18.6698 26.6063 16.3576 28.0384 14.287ZM39.9788 21.1372H34.8886C34.3486 19.0002 33.5489 16.9372 32.5074 14.9945C35.6823 16.0816 38.3223 18.2729 39.9788 21.1372ZM28.0384 10.7843C18.4964 10.7843 10.7835 18.549 10.7835 28.0392C10.7835 32.6155 12.6014 37.0043 15.8374 40.2403C17.4396 41.8425 19.3418 43.1135 21.4352 43.9807C23.5287 44.8478 25.7725 45.2941 28.0384 45.2941C32.6147 45.2941 37.0035 43.4762 40.2395 40.2403C43.4754 37.0043 45.2933 32.6155 45.2933 28.0392C45.2933 25.7733 44.847 23.5295 43.9799 21.436C43.1127 19.3426 41.8417 17.4404 40.2395 15.8381C38.6372 14.2359 36.735 12.9649 34.6416 12.0978C32.5481 11.2306 30.3044 10.7843 28.0384 10.7843Z" fill="white"/>
</svg>
