<svg width="53" height="57" viewBox="0 0 53 57" fill="none" xmlns="http://www.w3.org/2000/svg">
<rect x="0.901062" y="0.971191" width="51.9011" height="55.704" rx="15" fill="url(#paint0_linear_93002_369)"/>
<path d="M9.51797 49.82C9.39245 49.82 9.27074 49.767 9.1804 49.669C9.06154 49.5394 9.01495 49.3506 9.05964 49.1761L11.569 39.3419C10.0134 36.3762 9.19276 33.0084 9.19466 29.5895C9.19847 18.6266 17.5102 9.70898 27.7236 9.70898C32.6777 9.71103 37.3323 11.7817 40.8306 15.5394C44.3289 19.2982 46.2545 24.2928 46.2526 29.6038C46.2488 40.5656 37.9361 49.4843 27.7236 49.4843C24.6912 49.4832 21.6912 48.6801 19.0287 47.1604L9.63873 49.8027C9.59879 49.8149 9.55885 49.82 9.51797 49.82Z" fill="white"/>
<path d="M38.3363 18.2121C35.5026 15.1688 31.7362 13.492 27.7272 13.491C19.4507 13.491 12.7194 20.7124 12.7156 29.5893C12.7147 32.6316 13.5077 35.5932 15.0101 38.1579L15.3676 38.7672L13.851 44.7078L19.5306 43.1096L20.0793 43.4587C22.3823 44.9262 25.0239 45.7019 27.7168 45.7029H27.7225C35.9933 45.7029 42.7246 38.4804 42.7275 29.6025C42.7284 25.3009 41.1699 21.2554 38.3363 18.2121Z" fill="#40C351"/>
<path fill-rule="evenodd" clip-rule="evenodd" d="M23.2105 21.4912C22.8729 20.685 22.5173 20.6687 22.1949 20.6544C21.9315 20.6421 21.631 20.6431 21.3306 20.6431C21.0301 20.6431 20.5413 20.7646 20.1277 21.2494C19.714 21.7341 18.5483 22.9047 18.5483 25.2867C18.5483 27.6687 20.1648 29.9711 20.3901 30.2936C20.6155 30.6161 23.5109 35.6607 28.0961 37.6018C31.9063 39.2143 32.6822 38.8938 33.5095 38.8132C34.3368 38.7326 36.1786 37.6426 36.5542 36.5118C36.9298 35.381 36.9298 34.4125 36.8176 34.2105C36.7045 34.0084 36.404 33.888 35.9533 33.6451C35.5025 33.4022 33.2841 32.2316 32.8705 32.0703C32.4569 31.9091 32.1564 31.8285 31.855 32.3132C31.5545 32.797 30.6901 33.888 30.4267 34.2105C30.1633 34.534 29.8999 34.5748 29.4492 34.3319C28.9985 34.089 27.5455 33.5787 25.8216 31.9295C24.4808 30.6467 23.5756 29.0617 23.3122 28.577C23.0488 28.0932 23.2837 27.8309 23.51 27.5891C23.7125 27.3717 23.9607 27.0237 24.187 26.741C24.4124 26.4583 24.4875 26.2562 24.6377 25.9337C24.788 25.6102 24.7129 25.3275 24.5997 25.0856C24.4884 24.8427 23.6117 22.4485 23.2105 21.4912Z" fill="white"/>
<defs>
<linearGradient id="paint0_linear_93002_369" x1="26.8516" y1="0.971191" x2="26.8516" y2="56.6752" gradientUnits="userSpaceOnUse">
<stop stop-color="#80D88C"/>
<stop offset="1" stop-color="#40C351"/>
</linearGradient>
</defs>
</svg>
