<svg width="55" height="55" viewBox="0 0 55 55" fill="none" xmlns="http://www.w3.org/2000/svg">
<rect width="55" height="55" rx="15" fill="url(#paint0_linear_2_203)"/>
<path d="M9.1314 48.2314C8.99838 48.2314 8.8694 48.179 8.77368 48.0823C8.64772 47.9543 8.59834 47.7679 8.6457 47.5956L11.3049 37.8858C9.65639 34.9575 8.78678 31.6322 8.78879 28.2566C8.79282 17.4323 17.6008 8.62733 28.4241 8.62733C33.674 8.62935 38.6065 10.6739 42.3137 14.3841C46.0209 18.0953 48.0614 23.0268 48.0594 28.2707C48.0553 39.094 39.2464 47.8999 28.4241 47.8999C25.2106 47.8989 22.0315 47.1059 19.21 45.6055L9.25937 48.2143C9.21705 48.2264 9.17473 48.2314 9.1314 48.2314Z" fill="white"/>
<path d="M39.6704 17.0229C36.6676 14.0181 32.6762 12.3625 28.4279 12.3615C19.6573 12.3615 12.524 19.4917 12.52 28.2563C12.519 31.2602 13.3594 34.1844 14.9515 36.7166L15.3304 37.3182L13.7231 43.1838L19.7419 41.6058L20.3233 41.9504C22.7639 43.3995 25.5632 44.1653 28.4169 44.1663H28.4229C37.1875 44.1663 44.3208 37.0351 44.3238 28.2694C44.3248 24.0221 42.6732 20.0278 39.6704 17.0229Z" fill="#40C351"/>
<path fill-rule="evenodd" clip-rule="evenodd" d="M23.6414 20.2606C23.2837 19.4646 22.9068 19.4484 22.5652 19.4343C22.2861 19.4222 21.9677 19.4233 21.6493 19.4233C21.3309 19.4233 20.8129 19.5432 20.3746 20.0218C19.9363 20.5004 18.7009 21.6562 18.7009 24.0081C18.7009 26.36 20.4139 28.6333 20.6527 28.9517C20.8915 29.2701 23.9599 34.251 28.8188 36.1676C32.8565 37.7597 33.6787 37.4433 34.5554 37.3637C35.4321 37.284 37.3839 36.2079 37.7819 35.0914C38.18 33.9749 38.18 33.0186 38.0611 32.8191C37.9411 32.6196 37.6227 32.5007 37.1451 32.2609C36.6675 32.021 34.3166 30.8652 33.8783 30.706C33.4399 30.5468 33.1215 30.4672 32.8021 30.9459C32.4837 31.4235 31.5677 32.5007 31.2886 32.8191C31.0094 33.1385 30.7303 33.1788 30.2527 32.939C29.7751 32.6992 28.2354 32.1954 26.4085 30.567C24.9877 29.3003 24.0284 27.7355 23.7492 27.2568C23.4701 26.7792 23.719 26.5202 23.9588 26.2814C24.1735 26.0668 24.4365 25.7231 24.6763 25.444C24.9151 25.1649 24.9947 24.9654 25.1539 24.647C25.3131 24.3275 25.2335 24.0484 25.1136 23.8096C24.9957 23.5698 24.0667 21.2058 23.6414 20.2606Z" fill="white"/>
<defs>
<linearGradient id="paint0_linear_2_203" x1="27.5" y1="0" x2="27.5" y2="55" gradientUnits="userSpaceOnUse">
<stop stop-color="#80D88C"/>
<stop offset="1" stop-color="#40C351"/>
</linearGradient>
</defs>
</svg>
