<svg width="55" height="55" viewBox="0 0 55 55" fill="none" xmlns="http://www.w3.org/2000/svg">
<rect width="55" height="55" rx="15" fill="url(#paint0_linear_93002_667)"/>
<path d="M15.5849 32.7986C15.1172 32.7986 14.743 32.5249 14.4623 32.0687C14.2752 31.7037 14.1817 31.1563 14.0881 30.5177C13.901 28.5105 14.0881 25.4996 14.743 24.5873C15.0236 24.1311 15.4913 23.9486 15.8655 23.9486C16.1462 23.9486 16.4268 24.0398 22.5073 26.5032L24.2847 27.2331C24.9396 27.5068 25.3137 28.1455 25.3137 28.8754C25.3137 29.6053 24.846 30.1527 24.1912 30.3352L21.6654 31.1563C16.0526 32.7986 15.8655 32.7986 15.5849 32.7986ZM28.0266 36.0831C28.0266 41.831 28.0266 42.0135 27.933 42.2872C27.746 42.7434 27.3718 43.0171 26.904 43.1084C25.4073 43.3821 20.73 41.6486 19.7009 40.5537C19.5138 40.28 19.4203 40.0975 19.3268 39.8238C19.3268 39.6414 19.3268 39.4589 19.4203 39.2764C19.5138 39.0027 19.7009 38.729 23.9105 33.8934L25.1266 32.4336C25.5008 31.8862 26.3428 31.795 26.9976 31.9775C27.6524 32.2512 28.1201 32.7986 28.0266 33.4372C28.0266 33.5285 28.0266 36.0831 28.0266 36.0831ZM26.904 23.8574C26.6234 23.9486 25.6879 24.2223 24.5654 22.3976C24.5654 22.3976 16.9881 10.628 16.801 10.2631C16.7074 9.89814 16.801 9.35071 17.1752 8.98577C18.2977 7.79969 24.3783 6.15742 25.9686 6.52237C26.5298 6.61361 26.8105 6.97856 26.9976 7.43474C27.0911 7.98216 27.8395 18.8393 27.933 21.3027C28.1201 23.4924 27.1847 23.7661 26.904 23.8574ZM31.0201 26.5945C30.6459 26.0471 30.6459 25.3172 31.0201 24.861L32.6104 22.7625C35.9781 18.2007 36.1652 17.927 36.4458 17.8357C36.82 17.562 37.2877 17.562 37.7554 17.7445C39.0651 18.3832 41.8715 22.3976 42.0586 23.8574C42.0586 23.8574 42.0586 23.8574 42.0586 23.9486C42.0586 24.496 41.8715 24.861 41.4973 25.1347C41.2167 25.3172 41.0296 25.4084 34.5749 26.8682C33.5458 27.1419 32.9846 27.2331 32.7039 27.3244V27.2331C32.1426 27.5068 31.3943 27.1419 31.0201 26.5945ZM41.965 34.3496C41.778 35.8094 38.6909 39.6414 37.1942 40.1888C36.7264 40.3712 36.2587 40.3712 35.8845 40.0063C35.6039 39.8238 35.4168 39.4589 32.0491 34.1671L31.0201 32.6161C30.6459 32.0687 30.7394 31.3388 31.2072 30.7001C31.6749 30.1527 32.3297 29.9702 32.9846 30.1527L35.5103 30.9739C41.1231 32.7986 41.3102 32.7986 41.4973 32.9811C41.8715 33.4372 42.0586 33.8934 41.965 34.3496Z" fill="white"/>
<defs>
<linearGradient id="paint0_linear_93002_667" x1="28.0392" y1="55" x2="28.0392" y2="-29.1176" gradientUnits="userSpaceOnUse">
<stop offset="0.40201" stop-color="#DD2C00"/>
<stop offset="1" stop-color="white"/>
</linearGradient>
</defs>
</svg>
