<svg width="52" height="57" viewBox="0 0 52 57" fill="none" xmlns="http://www.w3.org/2000/svg">
<rect y="0.768005" width="51.9011" height="55.704" rx="10" fill="#FF3D00"/>
<path d="M41.0171 37.0838C40.7025 38.857 39.365 40.208 37.7129 40.4613C35.1167 40.8835 30.7897 41.3901 25.912 41.3901C21.113 41.3901 16.786 40.8835 14.1111 40.4613C12.459 40.208 11.1216 38.857 10.8069 37.0838C10.4922 35.1418 10.1775 32.2709 10.1775 28.7245C10.1775 25.1782 10.4922 22.3073 10.8069 20.3653C11.1216 18.5921 12.459 17.2411 14.1111 16.9878C16.7073 16.5656 21.0343 16.059 25.912 16.059C30.7897 16.059 35.038 16.5656 37.7129 16.9878C39.365 17.2411 40.7025 18.5921 41.0171 20.3653C41.3318 22.3073 41.7252 25.1782 41.7252 28.7245C41.6465 32.2709 41.3318 35.1418 41.0171 37.0838Z" fill="white"/>
<path d="M22.3948 34.5854V22.7642L31.8355 28.6748L22.3948 34.5854Z" fill="#FF3D00"/>
</svg>
